{
	"asset":{
		"generator":"Khronos glTF Blender I/O v3.5.30",
		"version":"2.0"
	},
	"scene":0,
	"scenes":[
		{
			"name":"Scene",
			"nodes":[
				0,
				1,
				2
			]
		}
	],
	"nodes":[
		{
			"mesh":0,
			"name":"Flipper Right",
			"rotation":[
				0,
				0.3173046410083771,
				0,
				0.948323667049408
			],
			"translation":[
				0.8313856720924377,
				-0.042504966259002686,
				-0.24547919631004333
			]
		},
		{
			"mesh":1,
			"name":"Pinball Plate"
		},
		{
			"mesh":2,
			"name":"Flipper Left",
			"rotation":[
				0,
				-0.3173046410083771,
				0,
				0.948323667049408
			],
			"translation":[
				0.8313130736351013,
				-0.04363929107785225,
				0.3187005817890167
			]
		}
	],
	"materials":[
		{
			"doubleSided":true,
			"name":"Fliipper Material",
			"pbrMetallicRoughness":{
				"metallicFactor":0,
				"roughnessFactor":0.5
			}
		},
		{
			"doubleSided":true,
			"name":"Material",
			"pbrMetallicRoughness":{
				"metallicFactor":0,
				"roughnessFactor":0.5
			}
		}
	],
	"meshes":[
		{
			"name":"Cube.002",
			"primitives":[
				{
					"attributes":{
						"POSITION":0,
						"TEXCOORD_0":1,
						"NORMAL":2
					},
					"indices":3,
					"material":0
				}
			]
		},
		{
			"name":"Cube.006",
			"primitives":[
				{
					"attributes":{
						"POSITION":4,
						"TEXCOORD_0":5,
						"NORMAL":6
					},
					"indices":7,
					"material":1
				}
			]
		},
		{
			"name":"Cube.003",
			"primitives":[
				{
					"attributes":{
						"POSITION":8,
						"TEXCOORD_0":9,
						"NORMAL":10
					},
					"indices":11,
					"material":0
				}
			]
		}
	],
	"accessors":[
		{
			"bufferView":0,
			"componentType":5126,
			"count":192,
			"max":[
				0.030529936775565147,
				0.06844452768564224,
				0.2341981828212738
			],
			"min":[
				-0.03052986040711403,
				4.76837147544984e-09,
				-0.025055237114429474
			],
			"type":"VEC3"
		},
		{
			"bufferView":1,
			"componentType":5126,
			"count":192,
			"type":"VEC2"
		},
		{
			"bufferView":2,
			"componentType":5126,
			"count":192,
			"type":"VEC3"
		},
		{
			"bufferView":3,
			"componentType":5123,
			"count":372,
			"type":"SCALAR"
		},
		{
			"bufferView":4,
			"componentType":5126,
			"count":1179,
			"max":[
				1.2999999523162842,
				0.04999999701976776,
				0.7200002074241638
			],
			"min":[
				-1.2999999523162842,
				-0.17266425490379333,
				-0.7199999690055847
			],
			"type":"VEC3"
		},
		{
			"bufferView":5,
			"componentType":5126,
			"count":1179,
			"type":"VEC2"
		},
		{
			"bufferView":6,
			"componentType":5126,
			"count":1179,
			"type":"VEC3"
		},
		{
			"bufferView":7,
			"componentType":5123,
			"count":2304,
			"type":"SCALAR"
		},
		{
			"bufferView":8,
			"componentType":5126,
			"count":192,
			"max":[
				0.03052980825304985,
				0.06957884877920151,
				0.02505529299378395
			],
			"min":[
				-0.030529988929629326,
				4.76837147544984e-09,
				-0.23419809341430664
			],
			"type":"VEC3"
		},
		{
			"bufferView":9,
			"componentType":5126,
			"count":192,
			"type":"VEC2"
		},
		{
			"bufferView":10,
			"componentType":5126,
			"count":192,
			"type":"VEC3"
		},
		{
			"bufferView":11,
			"componentType":5123,
			"count":372,
			"type":"SCALAR"
		}
	],
	"bufferViews":[
		{
			"buffer":0,
			"byteLength":2304,
			"byteOffset":0,
			"target":34962
		},
		{
			"buffer":0,
			"byteLength":1536,
			"byteOffset":2304,
			"target":34962
		},
		{
			"buffer":0,
			"byteLength":2304,
			"byteOffset":3840,
			"target":34962
		},
		{
			"buffer":0,
			"byteLength":744,
			"byteOffset":6144,
			"target":34963
		},
		{
			"buffer":0,
			"byteLength":14148,
			"byteOffset":6888,
			"target":34962
		},
		{
			"buffer":0,
			"byteLength":9432,
			"byteOffset":21036,
			"target":34962
		},
		{
			"buffer":0,
			"byteLength":14148,
			"byteOffset":30468,
			"target":34962
		},
		{
			"buffer":0,
			"byteLength":4608,
			"byteOffset":44616,
			"target":34963
		},
		{
			"buffer":0,
			"byteLength":2304,
			"byteOffset":49224,
			"target":34962
		},
		{
			"buffer":0,
			"byteLength":1536,
			"byteOffset":51528,
			"target":34962
		},
		{
			"buffer":0,
			"byteLength":2304,
			"byteOffset":53064,
			"target":34962
		},
		{
			"buffer":0,
			"byteLength":744,
			"byteOffset":55368,
			"target":34963
		}
	],
	"buffers":[
		{
			"byteLength":56112,
			"uri":"data:application/octet-stream;base64,"
		}
	]
}
