{
	"asset":{
		"generator":"Khronos glTF Blender I/O v3.6.27",
		"version":"2.0"
	},
	"scene":0,
	"scenes":[
		{
			"name":"Scene",
			"nodes":[
				0,
				1,
				2
			]
		}
	],
	"nodes":[
		{
			"mesh":0,
			"name":"Menu Glass",
			"translation":[
				1.300226092338562,
				0.0010000000474974513,
				0.03762103617191315
			]
		},
		{
			"mesh":1,
			"name":"Menu Element",
			"translation":[
				1.300226092338562,
				0,
				0.03762103617191315
			]
		},
		{
			"mesh":2,
			"name":"Menu Element Collider",
			"translation":[
				1.300226092338562,
				0,
				0.03762103617191315
			]
		}
	],
	"materials":[
		{
			"doubleSided":true,
			"name":"Material.006",
			"pbrMetallicRoughness":{
				"baseColorTexture":{
					"index":0
				},
				"metallicFactor":0,
				"roughnessFactor":0.5
			}
		}
	],
	"meshes":[
		{
			"name":"Cylinder.013",
			"primitives":[
				{
					"attributes":{
						"POSITION":0,
						"NORMAL":1,
						"TEXCOORD_0":2
					},
					"indices":3
				}
			]
		},
		{
			"name":"Cylinder.015",
			"primitives":[
				{
					"attributes":{
						"POSITION":4,
						"NORMAL":5,
						"TEXCOORD_0":6
					},
					"indices":7,
					"material":0
				}
			]
		},
		{
			"name":"Cylinder.016",
			"primitives":[
				{
					"attributes":{
						"POSITION":8,
						"NORMAL":9,
						"TEXCOORD_0":10
					},
					"indices":11
				}
			]
		}
	],
	"textures":[
		{
			"sampler":0,
			"source":0
		}
	],
	"images":[
		{
			"bufferView":8,
			"mimeType":"image/png",
			"name":"pinball_menu_gun_tower_texture"
		}
	],
	"accessors":[
		{
			"bufferView":0,
			"componentType":5126,
			"count":132,
			"max":[
				-0.7373653650283813,
				-0.04599994421005249,
				0.47437307238578796
			],
			"min":[
				-0.9999943375587463,
				-0.05100006237626076,
				-0.4684150815010071
			],
			"type":"VEC3"
		},
		{
			"bufferView":1,
			"componentType":5126,
			"count":132,
			"type":"VEC3"
		},
		{
			"bufferView":2,
			"componentType":5126,
			"count":132,
			"type":"VEC2"
		},
		{
			"bufferView":3,
			"componentType":5123,
			"count":252,
			"type":"SCALAR"
		},
		{
			"bufferView":4,
			"componentType":5126,
			"count":36,
			"max":[
				-0.8378720283508301,
				-0.05374995991587639,
				0.09354816377162933
			],
			"min":[
				-0.9932447671890259,
				-0.060000065714120865,
				-0.08690301328897476
			],
			"type":"VEC3"
		},
		{
			"bufferView":5,
			"componentType":5126,
			"count":36,
			"type":"VEC3"
		},
		{
			"bufferView":6,
			"componentType":5126,
			"count":36,
			"type":"VEC2"
		},
		{
			"bufferView":7,
			"componentType":5123,
			"count":60,
			"type":"SCALAR"
		},
		{
			"bufferView":9,
			"componentType":5126,
			"count":24,
			"max":[
				-0.8378720283508301,
				0.05000006780028343,
				0.09354816377162933
			],
			"min":[
				-0.9891170263290405,
				-0.060000065714120865,
				-0.08690301328897476
			],
			"type":"VEC3"
		},
		{
			"bufferView":10,
			"componentType":5126,
			"count":24,
			"type":"VEC3"
		},
		{
			"bufferView":11,
			"componentType":5126,
			"count":24,
			"type":"VEC2"
		},
		{
			"bufferView":12,
			"componentType":5123,
			"count":36,
			"type":"SCALAR"
		}
	],
	"bufferViews":[
		{
			"buffer":0,
			"byteLength":1584,
			"byteOffset":0,
			"target":34962
		},
		{
			"buffer":0,
			"byteLength":1584,
			"byteOffset":1584,
			"target":34962
		},
		{
			"buffer":0,
			"byteLength":1056,
			"byteOffset":3168,
			"target":34962
		},
		{
			"buffer":0,
			"byteLength":504,
			"byteOffset":4224,
			"target":34963
		},
		{
			"buffer":0,
			"byteLength":432,
			"byteOffset":4728,
			"target":34962
		},
		{
			"buffer":0,
			"byteLength":432,
			"byteOffset":5160,
			"target":34962
		},
		{
			"buffer":0,
			"byteLength":288,
			"byteOffset":5592,
			"target":34962
		},
		{
			"buffer":0,
			"byteLength":120,
			"byteOffset":5880,
			"target":34963
		},
		{
			"buffer":0,
			"byteLength":2597341,
			"byteOffset":6000
		},
		{
			"buffer":0,
			"byteLength":288,
			"byteOffset":2603344,
			"target":34962
		},
		{
			"buffer":0,
			"byteLength":288,
			"byteOffset":2603632,
			"target":34962
		},
		{
			"buffer":0,
			"byteLength":192,
			"byteOffset":2603920,
			"target":34962
		},
		{
			"buffer":0,
			"byteLength":72,
			"byteOffset":2604112,
			"target":34963
		}
	],
	"samplers":[
		{
			"magFilter":9729,
			"minFilter":9987
		}
	],
	"buffers":[
		{
			"byteLength":2604184,
			"uri":"data:application/octet-stream;base64,"
		}
	]
}
