{
    "asset" : {
        "copyright" : "Serveny",
        "generator" : "Khronos glTF Blender I/O v3.4.50",
        "version" : "2.0"
    },
    "scene" : 0,
    "scenes" : [
        {
            "name" : "Scene",
            "nodes" : [
                0
            ]
        }
    ],
    "nodes" : [
        {
            "mesh" : 0,
            "name" : "Pinball Plate",
            "scale" : [
                1,
                0.5,
                1
            ]
        }
    ],
    "materials" : [
        {
            "doubleSided" : true,
            "name" : "Material",
            "pbrMetallicRoughness" : {
                "baseColorFactor" : [
                    0.800000011920929,
                    0.800000011920929,
                    0.800000011920929,
                    1
                ],
                "metallicFactor" : 0,
                "roughnessFactor" : 0.5
            }
        }
    ],
    "meshes" : [
        {
            "name" : "Cube",
            "primitives" : [
                {
                    "attributes" : {
                        "POSITION" : 0,
                        "TEXCOORD_0" : 1,
                        "NORMAL" : 2
                    },
                    "indices" : 3,
                    "material" : 0
                },
                {
                    "attributes" : {
                        "POSITION" : 4
                    },
                    "indices" : 5,
                    "material" : 0,
                    "mode" : 1
                },
                {
                    "attributes" : {
                        "POSITION" : 6
                    },
                    "material" : 0,
                    "mode" : 0
                }
            ]
        }
    ],
    "accessors" : [
        {
            "bufferView" : 0,
            "componentType" : 5126,
            "count" : 532,
            "max" : [
                1.2999999523162842,
                0.20000000298023224,
                0.7200000286102295
            ],
            "min" : [
                -1.2999999523162842,
                -0.20000000298023224,
                -0.7200000286102295
            ],
            "type" : "VEC3"
        },
        {
            "bufferView" : 1,
            "componentType" : 5126,
            "count" : 532,
            "type" : "VEC2"
        },
        {
            "bufferView" : 2,
            "componentType" : 5126,
            "count" : 532,
            "type" : "VEC3"
        },
        {
            "bufferView" : 3,
            "componentType" : 5123,
            "count" : 1038,
            "type" : "SCALAR"
        },
        {
            "bufferView" : 4,
            "componentType" : 5126,
            "count" : 6,
            "max" : [
                1.2999999523162842,
                0.20000000298023224,
                0.6840000152587891
            ],
            "min" : [
                1.0574772357940674,
                -0.11898893862962723,
                -0.5604394674301147
            ],
            "type" : "VEC3"
        },
        {
            "bufferView" : 5,
            "componentType" : 5123,
            "count" : 8,
            "type" : "SCALAR"
        },
        {
            "bufferView" : 6,
            "componentType" : 5126,
            "count" : 1,
            "max" : [
                0.9086489677429199,
                -0.17964981496334076,
                -0.5823360085487366
            ],
            "min" : [
                0.9086489677429199,
                -0.17964981496334076,
                -0.5823360085487366
            ],
            "type" : "VEC3"
        }
    ],
    "bufferViews" : [
        {
            "buffer" : 0,
            "byteLength" : 6384,
            "byteOffset" : 0,
            "target" : 34962
        },
        {
            "buffer" : 0,
            "byteLength" : 4256,
            "byteOffset" : 6384,
            "target" : 34962
        },
        {
            "buffer" : 0,
            "byteLength" : 6384,
            "byteOffset" : 10640,
            "target" : 34962
        },
        {
            "buffer" : 0,
            "byteLength" : 2076,
            "byteOffset" : 17024,
            "target" : 34963
        },
        {
            "buffer" : 0,
            "byteLength" : 72,
            "byteOffset" : 19100,
            "target" : 34962
        },
        {
            "buffer" : 0,
            "byteLength" : 16,
            "byteOffset" : 19172,
            "target" : 34963
        },
        {
            "buffer" : 0,
            "byteLength" : 12,
            "byteOffset" : 19188,
            "target" : 34962
        }
    ],
    "buffers" : [
        {
            "byteLength" : 19200,
            "uri" : "data:application/octet-stream;base64,"
        }
    ]
}
