{
	"asset":{
		"generator":"Khronos glTF Blender I/O v3.6.27",
		"version":"2.0"
	},
	"scene":0,
	"scenes":[
		{
			"name":"Scene",
			"nodes":[
				0,
				1,
				2,
				3,
				4,
				5
			]
		}
	],
	"nodes":[
		{
			"mesh":0,
			"name":"Pinball Plate"
		},
		{
			"mesh":1,
			"name":"Pinball Menu Glass",
			"translation":[
				1.300226092338562,
				0.0010000000474974513,
				0.03762103617191315
			]
		},
		{
			"mesh":2,
			"name":"Pinball Plate Frame Collider"
		},
		{
			"mesh":3,
			"name":"Pinball Plate Ground Collider"
		},
		{
			"mesh":4,
			"name":"Pinball Plate Rebound Collider Left"
		},
		{
			"mesh":5,
			"name":"Pinball Plate Rebound Collider Right"
		}
	],
	"materials":[
		{
			"doubleSided":true,
			"name":"Pinball Plate Material",
			"pbrMetallicRoughness":{
				"baseColorTexture":{
					"index":0
				},
				"metallicFactor":0,
				"roughnessFactor":0.5
			}
		}
	],
	"meshes":[
		{
			"name":"Cube.006",
			"primitives":[
				{
					"attributes":{
						"POSITION":0,
						"NORMAL":1,
						"TEXCOORD_0":2
					},
					"indices":3,
					"material":0
				}
			]
		},
		{
			"name":"Cylinder.013",
			"primitives":[
				{
					"attributes":{
						"POSITION":4,
						"NORMAL":5,
						"TEXCOORD_0":6
					},
					"indices":7
				}
			]
		},
		{
			"name":"Cube.011",
			"primitives":[
				{
					"attributes":{
						"POSITION":8,
						"NORMAL":9,
						"TEXCOORD_0":10
					},
					"indices":11
				}
			]
		},
		{
			"name":"Cube.018",
			"primitives":[
				{
					"attributes":{
						"POSITION":12,
						"NORMAL":13,
						"TEXCOORD_0":14
					},
					"indices":15
				}
			]
		},
		{
			"name":"Cube.023",
			"primitives":[
				{
					"attributes":{
						"POSITION":16,
						"NORMAL":17,
						"TEXCOORD_0":18
					},
					"indices":19
				}
			]
		},
		{
			"name":"Cube.022",
			"primitives":[
				{
					"attributes":{
						"POSITION":20,
						"NORMAL":21,
						"TEXCOORD_0":22
					},
					"indices":23
				}
			]
		}
	],
	"textures":[
		{
			"sampler":0,
			"source":0
		}
	],
	"images":[
		{
			"bufferView":4,
			"mimeType":"image/png",
			"name":"Pinball Plate Texture"
		}
	],
	"accessors":[
		{
			"bufferView":0,
			"componentType":5126,
			"count":1310,
			"max":[
				1.2999999523162842,
				0.04999999701976776,
				0.7200002074241638
			],
			"min":[
				-1.2999999523162842,
				-0.17266425490379333,
				-0.7199999690055847
			],
			"type":"VEC3"
		},
		{
			"bufferView":1,
			"componentType":5126,
			"count":1310,
			"type":"VEC3"
		},
		{
			"bufferView":2,
			"componentType":5126,
			"count":1310,
			"type":"VEC2"
		},
		{
			"bufferView":3,
			"componentType":5123,
			"count":2544,
			"type":"SCALAR"
		},
		{
			"bufferView":5,
			"componentType":5126,
			"count":132,
			"max":[
				-0.7373653650283813,
				-0.04599994421005249,
				0.47437307238578796
			],
			"min":[
				-0.9999943375587463,
				-0.05100006237626076,
				-0.4684150815010071
			],
			"type":"VEC3"
		},
		{
			"bufferView":6,
			"componentType":5126,
			"count":132,
			"type":"VEC3"
		},
		{
			"bufferView":7,
			"componentType":5126,
			"count":132,
			"type":"VEC2"
		},
		{
			"bufferView":8,
			"componentType":5123,
			"count":252,
			"type":"SCALAR"
		},
		{
			"bufferView":9,
			"componentType":5126,
			"count":190,
			"max":[
				1.280635952949524,
				0.05000000074505806,
				0.6840000152587891
			],
			"min":[
				-1.2349998950958252,
				-0.03903530538082123,
				-0.6839998364448547
			],
			"type":"VEC3"
		},
		{
			"bufferView":10,
			"componentType":5126,
			"count":190,
			"type":"VEC3"
		},
		{
			"bufferView":11,
			"componentType":5126,
			"count":190,
			"type":"VEC2"
		},
		{
			"bufferView":12,
			"componentType":5123,
			"count":294,
			"type":"SCALAR"
		},
		{
			"bufferView":13,
			"componentType":5126,
			"count":24,
			"max":[
				1.2999999523162842,
				-0.044980406761169434,
				0.7200002074241638
			],
			"min":[
				-1.2999999523162842,
				-0.0700000524520874,
				-0.7199999690055847
			],
			"type":"VEC3"
		},
		{
			"bufferView":14,
			"componentType":5126,
			"count":24,
			"type":"VEC3"
		},
		{
			"bufferView":15,
			"componentType":5126,
			"count":24,
			"type":"VEC2"
		},
		{
			"bufferView":16,
			"componentType":5123,
			"count":36,
			"type":"SCALAR"
		},
		{
			"bufferView":17,
			"componentType":5126,
			"count":48,
			"max":[
				0.8422034978866577,
				0.026198958978056908,
				0.6040099859237671
			],
			"min":[
				0.40865734219551086,
				-0.03903530538082123,
				0.3152863383293152
			],
			"type":"VEC3"
		},
		{
			"bufferView":18,
			"componentType":5126,
			"count":48,
			"type":"VEC3"
		},
		{
			"bufferView":19,
			"componentType":5126,
			"count":48,
			"type":"VEC2"
		},
		{
			"bufferView":20,
			"componentType":5123,
			"count":72,
			"type":"SCALAR"
		},
		{
			"bufferView":21,
			"componentType":5126,
			"count":48,
			"max":[
				0.841914713382721,
				0.026198958978056908,
				-0.24241456389427185
			],
			"min":[
				0.4455432891845703,
				-0.03903530538082123,
				-0.5311877727508545
			],
			"type":"VEC3"
		},
		{
			"bufferView":22,
			"componentType":5126,
			"count":48,
			"type":"VEC3"
		},
		{
			"bufferView":23,
			"componentType":5126,
			"count":48,
			"type":"VEC2"
		},
		{
			"bufferView":24,
			"componentType":5123,
			"count":72,
			"type":"SCALAR"
		}
	],
	"bufferViews":[
		{
			"buffer":0,
			"byteLength":15720,
			"byteOffset":0,
			"target":34962
		},
		{
			"buffer":0,
			"byteLength":15720,
			"byteOffset":15720,
			"target":34962
		},
		{
			"buffer":0,
			"byteLength":10480,
			"byteOffset":31440,
			"target":34962
		},
		{
			"buffer":0,
			"byteLength":5088,
			"byteOffset":41920,
			"target":34963
		},
		{
			"buffer":0,
			"byteLength":474482,
			"byteOffset":47008
		},
		{
			"buffer":0,
			"byteLength":1584,
			"byteOffset":521492,
			"target":34962
		},
		{
			"buffer":0,
			"byteLength":1584,
			"byteOffset":523076,
			"target":34962
		},
		{
			"buffer":0,
			"byteLength":1056,
			"byteOffset":524660,
			"target":34962
		},
		{
			"buffer":0,
			"byteLength":504,
			"byteOffset":525716,
			"target":34963
		},
		{
			"buffer":0,
			"byteLength":2280,
			"byteOffset":526220,
			"target":34962
		},
		{
			"buffer":0,
			"byteLength":2280,
			"byteOffset":528500,
			"target":34962
		},
		{
			"buffer":0,
			"byteLength":1520,
			"byteOffset":530780,
			"target":34962
		},
		{
			"buffer":0,
			"byteLength":588,
			"byteOffset":532300,
			"target":34963
		},
		{
			"buffer":0,
			"byteLength":288,
			"byteOffset":532888,
			"target":34962
		},
		{
			"buffer":0,
			"byteLength":288,
			"byteOffset":533176,
			"target":34962
		},
		{
			"buffer":0,
			"byteLength":192,
			"byteOffset":533464,
			"target":34962
		},
		{
			"buffer":0,
			"byteLength":72,
			"byteOffset":533656,
			"target":34963
		},
		{
			"buffer":0,
			"byteLength":576,
			"byteOffset":533728,
			"target":34962
		},
		{
			"buffer":0,
			"byteLength":576,
			"byteOffset":534304,
			"target":34962
		},
		{
			"buffer":0,
			"byteLength":384,
			"byteOffset":534880,
			"target":34962
		},
		{
			"buffer":0,
			"byteLength":144,
			"byteOffset":535264,
			"target":34963
		},
		{
			"buffer":0,
			"byteLength":576,
			"byteOffset":535408,
			"target":34962
		},
		{
			"buffer":0,
			"byteLength":576,
			"byteOffset":535984,
			"target":34962
		},
		{
			"buffer":0,
			"byteLength":384,
			"byteOffset":536560,
			"target":34962
		},
		{
			"buffer":0,
			"byteLength":144,
			"byteOffset":536944,
			"target":34963
		}
	],
	"samplers":[
		{
			"magFilter":9729,
			"minFilter":9987
		}
	],
	"buffers":[
		{
			"byteLength":537088,
			"uri":"data:application/octet-stream;base64,"
		}
	]
}
