{
	"asset":{
		"generator":"Khronos glTF Blender I/O v3.6.27",
		"version":"2.0"
	},
	"scene":0,
	"scenes":[
		{
			"name":"Scene",
			"nodes":[
				0,
				1,
				2
			]
		}
	],
	"nodes":[
		{
			"mesh":0,
			"name":"Pinball Plate.Collider"
		},
		{
			"mesh":1,
			"name":"Pinball Plate"
		},
		{
			"mesh":2,
			"name":"Pinball Menu Glass",
			"translation":[
				1.300226092338562,
				0.0010000000474974513,
				0.03762103617191315
			]
		}
	],
	"materials":[
		{
			"doubleSided":true,
			"name":"Material.004",
			"pbrMetallicRoughness":{
				"metallicFactor":0,
				"roughnessFactor":0.5
			}
		},
		{
			"doubleSided":true,
			"name":"Material",
			"pbrMetallicRoughness":{
				"metallicFactor":0,
				"roughnessFactor":0.5
			}
		}
	],
	"meshes":[
		{
			"name":"Cube.008",
			"primitives":[
				{
					"attributes":{
						"POSITION":0,
						"NORMAL":1,
						"TEXCOORD_0":2
					},
					"indices":3,
					"material":0
				}
			]
		},
		{
			"name":"Cube.006",
			"primitives":[
				{
					"attributes":{
						"POSITION":4,
						"NORMAL":5,
						"TEXCOORD_0":6
					},
					"indices":7,
					"material":1
				}
			]
		},
		{
			"name":"Cylinder.013",
			"primitives":[
				{
					"attributes":{
						"POSITION":8,
						"NORMAL":9,
						"TEXCOORD_0":10
					},
					"indices":11
				}
			]
		}
	],
	"accessors":[
		{
			"bufferView":0,
			"componentType":5126,
			"count":398,
			"max":[
				1.2999999523162842,
				0.05000000074505806,
				0.7200002074241638
			],
			"min":[
				-1.2999999523162842,
				-0.17266425490379333,
				-0.7204999923706055
			],
			"type":"VEC3"
		},
		{
			"bufferView":1,
			"componentType":5126,
			"count":398,
			"type":"VEC3"
		},
		{
			"bufferView":2,
			"componentType":5126,
			"count":398,
			"type":"VEC2"
		},
		{
			"bufferView":3,
			"componentType":5123,
			"count":714,
			"type":"SCALAR"
		},
		{
			"bufferView":4,
			"componentType":5126,
			"count":1310,
			"max":[
				1.2999999523162842,
				0.04999999701976776,
				0.7200002074241638
			],
			"min":[
				-1.2999999523162842,
				-0.17266425490379333,
				-0.7199999690055847
			],
			"type":"VEC3"
		},
		{
			"bufferView":5,
			"componentType":5126,
			"count":1310,
			"type":"VEC3"
		},
		{
			"bufferView":6,
			"componentType":5126,
			"count":1310,
			"type":"VEC2"
		},
		{
			"bufferView":7,
			"componentType":5123,
			"count":2544,
			"type":"SCALAR"
		},
		{
			"bufferView":8,
			"componentType":5126,
			"count":132,
			"max":[
				-0.7373653650283813,
				-0.04599994421005249,
				0.47437307238578796
			],
			"min":[
				-0.9999943375587463,
				-0.05100006237626076,
				-0.4684150815010071
			],
			"type":"VEC3"
		},
		{
			"bufferView":9,
			"componentType":5126,
			"count":132,
			"type":"VEC3"
		},
		{
			"bufferView":10,
			"componentType":5126,
			"count":132,
			"type":"VEC2"
		},
		{
			"bufferView":11,
			"componentType":5123,
			"count":252,
			"type":"SCALAR"
		}
	],
	"bufferViews":[
		{
			"buffer":0,
			"byteLength":4776,
			"byteOffset":0,
			"target":34962
		},
		{
			"buffer":0,
			"byteLength":4776,
			"byteOffset":4776,
			"target":34962
		},
		{
			"buffer":0,
			"byteLength":3184,
			"byteOffset":9552,
			"target":34962
		},
		{
			"buffer":0,
			"byteLength":1428,
			"byteOffset":12736,
			"target":34963
		},
		{
			"buffer":0,
			"byteLength":15720,
			"byteOffset":14164,
			"target":34962
		},
		{
			"buffer":0,
			"byteLength":15720,
			"byteOffset":29884,
			"target":34962
		},
		{
			"buffer":0,
			"byteLength":10480,
			"byteOffset":45604,
			"target":34962
		},
		{
			"buffer":0,
			"byteLength":5088,
			"byteOffset":56084,
			"target":34963
		},
		{
			"buffer":0,
			"byteLength":1584,
			"byteOffset":61172,
			"target":34962
		},
		{
			"buffer":0,
			"byteLength":1584,
			"byteOffset":62756,
			"target":34962
		},
		{
			"buffer":0,
			"byteLength":1056,
			"byteOffset":64340,
			"target":34962
		},
		{
			"buffer":0,
			"byteLength":504,
			"byteOffset":65396,
			"target":34963
		}
	],
	"buffers":[
		{
			"byteLength":65900,
			"uri":"data:application/octet-stream;base64,"
		}
	]
}
