{
	"asset":{
		"generator":"Khronos glTF Blender I/O v3.5.30",
		"version":"2.0"
	},
	"scene":0,
	"scenes":[
		{
			"name":"Scene",
			"nodes":[
				0,
				1,
				2,
				3,
				4,
				5,
				6,
				7
			]
		}
	],
	"nodes":[
		{
			"mesh":0,
			"name":"Flipper Right",
			"rotation":[
				0,
				0.3173046410083771,
				0,
				0.948323667049408
			],
			"translation":[
				0.8313856720924377,
				-0.042504966259002686,
				-0.24547919631004333
			]
		},
		{
			"mesh":1,
			"name":"Pinball Plate"
		},
		{
			"mesh":2,
			"name":"Flipper Left",
			"rotation":[
				0,
				-0.3173046410083771,
				0,
				0.948323667049408
			],
			"translation":[
				0.8313130736351013,
				-0.04363929107785225,
				0.3187005817890167
			]
		},
		{
			"mesh":3,
			"name":"Tower_Base",
			"translation":[
				0,
				-0.025196272879838943,
				0
			]
		},
		{
			"mesh":4,
			"name":"Tower_Top_Microwave",
			"translation":[
				0,
				0.016432786360383034,
				0
			]
		},
		{
			"mesh":5,
			"name":"Mounting"
		},
		{
			"mesh":6,
			"name":"Head"
		},
		{
			"mesh":7,
			"name":"Barrel"
		}
	],
	"materials":[
		{
			"doubleSided":true,
			"name":"Fliipper Material",
			"pbrMetallicRoughness":{
				"metallicFactor":0,
				"roughnessFactor":0.5
			}
		},
		{
			"doubleSided":true,
			"name":"Material",
			"pbrMetallicRoughness":{
				"metallicFactor":0,
				"roughnessFactor":0.5
			}
		},
		{
			"doubleSided":true,
			"name":"Tower Base Material",
			"pbrMetallicRoughness":{
				"baseColorFactor":[
					0.8000000715255737,
					0.08656719326972961,
					0.08040072023868561,
					1
				],
				"metallicFactor":0,
				"roughnessFactor":0.5
			}
		}
	],
	"meshes":[
		{
			"name":"Cube.002",
			"primitives":[
				{
					"attributes":{
						"POSITION":0,
						"TEXCOORD_0":1,
						"NORMAL":2
					},
					"indices":3,
					"material":0
				}
			]
		},
		{
			"name":"Cube.006",
			"primitives":[
				{
					"attributes":{
						"POSITION":4,
						"TEXCOORD_0":5,
						"NORMAL":6
					},
					"indices":7,
					"material":1
				}
			]
		},
		{
			"name":"Cube.003",
			"primitives":[
				{
					"attributes":{
						"POSITION":8,
						"TEXCOORD_0":9,
						"NORMAL":10
					},
					"indices":11,
					"material":0
				}
			]
		},
		{
			"name":"Cylinder",
			"primitives":[
				{
					"attributes":{
						"POSITION":12,
						"TEXCOORD_0":13,
						"NORMAL":14
					},
					"indices":15,
					"material":2
				}
			]
		},
		{
			"name":"Cube",
			"primitives":[
				{
					"attributes":{
						"POSITION":16,
						"TEXCOORD_0":17,
						"NORMAL":18
					},
					"indices":19,
					"material":2
				}
			]
		},
		{
			"name":"Cube.005",
			"primitives":[
				{
					"attributes":{
						"POSITION":20,
						"TEXCOORD_0":21,
						"NORMAL":22
					},
					"indices":23
				}
			]
		},
		{
			"name":"Cube.007",
			"primitives":[
				{
					"attributes":{
						"POSITION":24,
						"TEXCOORD_0":25,
						"NORMAL":26
					},
					"indices":27
				}
			]
		},
		{
			"name":"Cylinder.003",
			"primitives":[
				{
					"attributes":{
						"POSITION":28,
						"TEXCOORD_0":29,
						"NORMAL":30
					},
					"indices":31
				}
			]
		}
	],
	"accessors":[
		{
			"bufferView":0,
			"componentType":5126,
			"count":192,
			"max":[
				0.030529936775565147,
				0.06844452768564224,
				0.2341981828212738
			],
			"min":[
				-0.03052986040711403,
				4.76837147544984e-09,
				-0.025055237114429474
			],
			"type":"VEC3"
		},
		{
			"bufferView":1,
			"componentType":5126,
			"count":192,
			"type":"VEC2"
		},
		{
			"bufferView":2,
			"componentType":5126,
			"count":192,
			"type":"VEC3"
		},
		{
			"bufferView":3,
			"componentType":5123,
			"count":372,
			"type":"SCALAR"
		},
		{
			"bufferView":4,
			"componentType":5126,
			"count":1179,
			"max":[
				1.2999999523162842,
				0.04999999701976776,
				0.7200002074241638
			],
			"min":[
				-1.2999999523162842,
				-0.17266425490379333,
				-0.7199999690055847
			],
			"type":"VEC3"
		},
		{
			"bufferView":5,
			"componentType":5126,
			"count":1179,
			"type":"VEC2"
		},
		{
			"bufferView":6,
			"componentType":5126,
			"count":1179,
			"type":"VEC3"
		},
		{
			"bufferView":7,
			"componentType":5123,
			"count":2304,
			"type":"SCALAR"
		},
		{
			"bufferView":8,
			"componentType":5126,
			"count":192,
			"max":[
				0.03052980825304985,
				0.06957884877920151,
				0.02505529299378395
			],
			"min":[
				-0.030529988929629326,
				4.76837147544984e-09,
				-0.23419809341430664
			],
			"type":"VEC3"
		},
		{
			"bufferView":9,
			"componentType":5126,
			"count":192,
			"type":"VEC2"
		},
		{
			"bufferView":10,
			"componentType":5126,
			"count":192,
			"type":"VEC3"
		},
		{
			"bufferView":11,
			"componentType":5123,
			"count":372,
			"type":"SCALAR"
		},
		{
			"bufferView":12,
			"componentType":5126,
			"count":368,
			"max":[
				0.04999924451112747,
				0.030279072001576424,
				0.05000055953860283
			],
			"min":[
				-0.05000075697898865,
				-0.019720926880836487,
				-0.04999944195151329
			],
			"type":"VEC3"
		},
		{
			"bufferView":13,
			"componentType":5126,
			"count":368,
			"type":"VEC2"
		},
		{
			"bufferView":14,
			"componentType":5126,
			"count":368,
			"type":"VEC3"
		},
		{
			"bufferView":15,
			"componentType":5123,
			"count":636,
			"type":"SCALAR"
		},
		{
			"bufferView":16,
			"componentType":5126,
			"count":473,
			"max":[
				0.052783381193876266,
				0.03606511652469635,
				0.034430429339408875
			],
			"min":[
				-0.026283087208867073,
				-0.033934883773326874,
				-0.03556956723332405
			],
			"type":"VEC3"
		},
		{
			"bufferView":17,
			"componentType":5126,
			"count":473,
			"type":"VEC2"
		},
		{
			"bufferView":18,
			"componentType":5126,
			"count":473,
			"type":"VEC3"
		},
		{
			"bufferView":19,
			"componentType":5123,
			"count":756,
			"type":"SCALAR"
		},
		{
			"bufferView":20,
			"componentType":5126,
			"count":116,
			"max":[
				0.015036454424262047,
				0.030000105500221252,
				0.02503645420074463
			],
			"min":[
				-0.015036454424262047,
				0.005011497065424919,
				-0.02503645420074463
			],
			"type":"VEC3"
		},
		{
			"bufferView":21,
			"componentType":5126,
			"count":116,
			"type":"VEC2"
		},
		{
			"bufferView":22,
			"componentType":5126,
			"count":116,
			"type":"VEC3"
		},
		{
			"bufferView":23,
			"componentType":5123,
			"count":204,
			"type":"SCALAR"
		},
		{
			"bufferView":24,
			"componentType":5126,
			"count":214,
			"max":[
				0.053295183926820755,
				0.032585252076387405,
				0.019957590848207474
			],
			"min":[
				-0.02740299701690674,
				0.014563703909516335,
				-0.019930578768253326
			],
			"type":"VEC3"
		},
		{
			"bufferView":25,
			"componentType":5126,
			"count":214,
			"type":"VEC2"
		},
		{
			"bufferView":26,
			"componentType":5126,
			"count":214,
			"type":"VEC3"
		},
		{
			"bufferView":27,
			"componentType":5123,
			"count":348,
			"type":"SCALAR"
		},
		{
			"bufferView":28,
			"componentType":5126,
			"count":640,
			"max":[
				0.0905609130859375,
				0.025905665010213852,
				0.0023396501783281565
			],
			"min":[
				0.040038127452135086,
				0.021226365119218826,
				-0.0023396501783281565
			],
			"type":"VEC3"
		},
		{
			"bufferView":29,
			"componentType":5126,
			"count":640,
			"type":"VEC2"
		},
		{
			"bufferView":30,
			"componentType":5126,
			"count":640,
			"type":"VEC3"
		},
		{
			"bufferView":31,
			"componentType":5123,
			"count":1140,
			"type":"SCALAR"
		}
	],
	"bufferViews":[
		{
			"buffer":0,
			"byteLength":2304,
			"byteOffset":0,
			"target":34962
		},
		{
			"buffer":0,
			"byteLength":1536,
			"byteOffset":2304,
			"target":34962
		},
		{
			"buffer":0,
			"byteLength":2304,
			"byteOffset":3840,
			"target":34962
		},
		{
			"buffer":0,
			"byteLength":744,
			"byteOffset":6144,
			"target":34963
		},
		{
			"buffer":0,
			"byteLength":14148,
			"byteOffset":6888,
			"target":34962
		},
		{
			"buffer":0,
			"byteLength":9432,
			"byteOffset":21036,
			"target":34962
		},
		{
			"buffer":0,
			"byteLength":14148,
			"byteOffset":30468,
			"target":34962
		},
		{
			"buffer":0,
			"byteLength":4608,
			"byteOffset":44616,
			"target":34963
		},
		{
			"buffer":0,
			"byteLength":2304,
			"byteOffset":49224,
			"target":34962
		},
		{
			"buffer":0,
			"byteLength":1536,
			"byteOffset":51528,
			"target":34962
		},
		{
			"buffer":0,
			"byteLength":2304,
			"byteOffset":53064,
			"target":34962
		},
		{
			"buffer":0,
			"byteLength":744,
			"byteOffset":55368,
			"target":34963
		},
		{
			"buffer":0,
			"byteLength":4416,
			"byteOffset":56112,
			"target":34962
		},
		{
			"buffer":0,
			"byteLength":2944,
			"byteOffset":60528,
			"target":34962
		},
		{
			"buffer":0,
			"byteLength":4416,
			"byteOffset":63472,
			"target":34962
		},
		{
			"buffer":0,
			"byteLength":1272,
			"byteOffset":67888,
			"target":34963
		},
		{
			"buffer":0,
			"byteLength":5676,
			"byteOffset":69160,
			"target":34962
		},
		{
			"buffer":0,
			"byteLength":3784,
			"byteOffset":74836,
			"target":34962
		},
		{
			"buffer":0,
			"byteLength":5676,
			"byteOffset":78620,
			"target":34962
		},
		{
			"buffer":0,
			"byteLength":1512,
			"byteOffset":84296,
			"target":34963
		},
		{
			"buffer":0,
			"byteLength":1392,
			"byteOffset":85808,
			"target":34962
		},
		{
			"buffer":0,
			"byteLength":928,
			"byteOffset":87200,
			"target":34962
		},
		{
			"buffer":0,
			"byteLength":1392,
			"byteOffset":88128,
			"target":34962
		},
		{
			"buffer":0,
			"byteLength":408,
			"byteOffset":89520,
			"target":34963
		},
		{
			"buffer":0,
			"byteLength":2568,
			"byteOffset":89928,
			"target":34962
		},
		{
			"buffer":0,
			"byteLength":1712,
			"byteOffset":92496,
			"target":34962
		},
		{
			"buffer":0,
			"byteLength":2568,
			"byteOffset":94208,
			"target":34962
		},
		{
			"buffer":0,
			"byteLength":696,
			"byteOffset":96776,
			"target":34963
		},
		{
			"buffer":0,
			"byteLength":7680,
			"byteOffset":97472,
			"target":34962
		},
		{
			"buffer":0,
			"byteLength":5120,
			"byteOffset":105152,
			"target":34962
		},
		{
			"buffer":0,
			"byteLength":7680,
			"byteOffset":110272,
			"target":34962
		},
		{
			"buffer":0,
			"byteLength":2280,
			"byteOffset":117952,
			"target":34963
		}
	],
	"buffers":[
		{
			"byteLength":120232,
			"uri":"data:application/octet-stream;base64,"
		}
	]
}
