{
	"asset":{
		"generator":"Khronos glTF Blender I/O v3.6.27",
		"version":"2.0"
	},
	"scene":0,
	"scenes":[
		{
			"name":"Scene",
			"nodes":[
				0,
				1
			]
		}
	],
	"nodes":[
		{
			"mesh":0,
			"name":"Pinball Plate"
		},
		{
			"mesh":1,
			"name":"Pinball Plate Collision Mesh"
		}
	],
	"meshes":[
		{
			"name":"Cube.006",
			"primitives":[
				{
					"attributes":{
						"POSITION":0,
						"NORMAL":1,
						"TEXCOORD_0":2
					},
					"indices":3
				}
			]
		},
		{
			"name":"Cube.009",
			"primitives":[
				{
					"attributes":{
						"POSITION":4,
						"NORMAL":5,
						"TEXCOORD_0":6
					},
					"indices":7
				}
			]
		}
	],
	"accessors":[
		{
			"bufferView":0,
			"componentType":5126,
			"count":1179,
			"max":[
				1.2999999523162842,
				0.04999999701976776,
				0.7200002074241638
			],
			"min":[
				-1.2999999523162842,
				-0.17266425490379333,
				-0.7199999690055847
			],
			"type":"VEC3"
		},
		{
			"bufferView":1,
			"componentType":5126,
			"count":1179,
			"type":"VEC3"
		},
		{
			"bufferView":2,
			"componentType":5126,
			"count":1179,
			"type":"VEC2"
		},
		{
			"bufferView":3,
			"componentType":5123,
			"count":2304,
			"type":"SCALAR"
		},
		{
			"bufferView":4,
			"componentType":5126,
			"count":571,
			"max":[
				1.2999999523162842,
				0.050016820430755615,
				0.7200002074241638
			],
			"min":[
				-1.2999999523162842,
				-0.17266425490379333,
				-0.7199999690055847
			],
			"type":"VEC3"
		},
		{
			"bufferView":5,
			"componentType":5126,
			"count":571,
			"type":"VEC3"
		},
		{
			"bufferView":6,
			"componentType":5126,
			"count":571,
			"type":"VEC2"
		},
		{
			"bufferView":7,
			"componentType":5123,
			"count":690,
			"type":"SCALAR"
		}
	],
	"bufferViews":[
		{
			"buffer":0,
			"byteLength":14148,
			"byteOffset":0,
			"target":34962
		},
		{
			"buffer":0,
			"byteLength":14148,
			"byteOffset":14148,
			"target":34962
		},
		{
			"buffer":0,
			"byteLength":9432,
			"byteOffset":28296,
			"target":34962
		},
		{
			"buffer":0,
			"byteLength":4608,
			"byteOffset":37728,
			"target":34963
		},
		{
			"buffer":0,
			"byteLength":6852,
			"byteOffset":42336,
			"target":34962
		},
		{
			"buffer":0,
			"byteLength":6852,
			"byteOffset":49188,
			"target":34962
		},
		{
			"buffer":0,
			"byteLength":4568,
			"byteOffset":56040,
			"target":34962
		},
		{
			"buffer":0,
			"byteLength":1380,
			"byteOffset":60608,
			"target":34963
		}
	],
	"buffers":[
		{
			"byteLength":61988,
			"uri":"data:application/octet-stream;base64,"
		}
	]
}
