{
	"asset":{
		"generator":"Khronos glTF Blender I/O v3.5.30",
		"version":"2.0"
	},
	"scene":0,
	"scenes":[
		{
			"name":"Scene",
			"nodes":[
				0,
				1
			]
		}
	],
	"nodes":[
		{
			"mesh":0,
			"name":"Flipper Right",
			"rotation":[
				0,
				0.3173046410083771,
				0,
				0.948323667049408
			],
			"translation":[
				0.8305090069770813,
				-0.0017741359770298004,
				-0.2460959106683731
			]
		},
		{
			"mesh":1,
			"name":"Pinball Plate"
		}
	],
	"materials":[
		{
			"doubleSided":true,
			"name":"Material",
			"pbrMetallicRoughness":{
				"metallicFactor":0,
				"roughnessFactor":0.5
			}
		}
	],
	"meshes":[
		{
			"name":"Cube.002",
			"primitives":[
				{
					"attributes":{
						"POSITION":0,
						"TEXCOORD_0":1,
						"NORMAL":2
					},
					"indices":3,
					"material":0
				}
			]
		},
		{
			"name":"Cube.006",
			"primitives":[
				{
					"attributes":{
						"POSITION":4,
						"TEXCOORD_0":5,
						"NORMAL":6
					},
					"indices":7,
					"material":0
				}
			]
		}
	],
	"accessors":[
		{
			"bufferView":0,
			"componentType":5126,
			"count":192,
			"max":[
				0.03083515167236328,
				0.027973096817731857,
				0.23654013872146606
			],
			"min":[
				-0.030835211277008057,
				-0.0411558672785759,
				-0.02530577778816223
			],
			"type":"VEC3"
		},
		{
			"bufferView":1,
			"componentType":5126,
			"count":192,
			"type":"VEC2"
		},
		{
			"bufferView":2,
			"componentType":5126,
			"count":192,
			"type":"VEC3"
		},
		{
			"bufferView":3,
			"componentType":5123,
			"count":372,
			"type":"SCALAR"
		},
		{
			"bufferView":4,
			"componentType":5126,
			"count":814,
			"max":[
				1.2999999523162842,
				0.05000000074505806,
				0.7200002074241638
			],
			"min":[
				-1.2999999523162842,
				-0.05000000074505806,
				-0.7200000286102295
			],
			"type":"VEC3"
		},
		{
			"bufferView":5,
			"componentType":5126,
			"count":814,
			"type":"VEC2"
		},
		{
			"bufferView":6,
			"componentType":5126,
			"count":814,
			"type":"VEC3"
		},
		{
			"bufferView":7,
			"componentType":5123,
			"count":1578,
			"type":"SCALAR"
		}
	],
	"bufferViews":[
		{
			"buffer":0,
			"byteLength":2304,
			"byteOffset":0,
			"target":34962
		},
		{
			"buffer":0,
			"byteLength":1536,
			"byteOffset":2304,
			"target":34962
		},
		{
			"buffer":0,
			"byteLength":2304,
			"byteOffset":3840,
			"target":34962
		},
		{
			"buffer":0,
			"byteLength":744,
			"byteOffset":6144,
			"target":34963
		},
		{
			"buffer":0,
			"byteLength":9768,
			"byteOffset":6888,
			"target":34962
		},
		{
			"buffer":0,
			"byteLength":6512,
			"byteOffset":16656,
			"target":34962
		},
		{
			"buffer":0,
			"byteLength":9768,
			"byteOffset":23168,
			"target":34962
		},
		{
			"buffer":0,
			"byteLength":3156,
			"byteOffset":32936,
			"target":34963
		}
	],
	"buffers":[
		{
			"byteLength":36092,
			"uri":"data:application/octet-stream;base64,"
		}
	]
}
