{
	"asset":{
		"generator":"Khronos glTF Blender I/O v3.5.30",
		"version":"2.0"
	},
	"scene":0,
	"scenes":[
		{
			"name":"Scene",
			"nodes":[
				0,
				1,
				2
			]
		}
	],
	"nodes":[
		{
			"mesh":0,
			"name":"Pinball Plate"
		},
		{
			"name":"Road Path",
			"translation":[
				0,
				-0.03999999910593033,
				0
			]
		},
		{
			"mesh":1,
			"name":"Road Plane",
			"translation":[
				0,
				-0.03999999910593033,
				0
			]
		}
	],
	"materials":[
		{
			"doubleSided":true,
			"name":"Material",
			"pbrMetallicRoughness":{
				"metallicFactor":0,
				"roughnessFactor":0.5
			}
		}
	],
	"meshes":[
		{
			"name":"Cube.006",
			"primitives":[
				{
					"attributes":{
						"POSITION":0,
						"TEXCOORD_0":1,
						"NORMAL":2
					},
					"indices":3,
					"material":0
				}
			]
		},
		{
			"name":"Plane.001",
			"primitives":[
				{
					"attributes":{
						"POSITION":4,
						"TEXCOORD_0":5,
						"NORMAL":6
					},
					"indices":7
				}
			]
		}
	],
	"accessors":[
		{
			"bufferView":0,
			"componentType":5126,
			"count":1179,
			"max":[
				1.2999999523162842,
				0.04999999701976776,
				0.7200002074241638
			],
			"min":[
				-1.2999999523162842,
				-0.17266425490379333,
				-0.7199999690055847
			],
			"type":"VEC3"
		},
		{
			"bufferView":1,
			"componentType":5126,
			"count":1179,
			"type":"VEC2"
		},
		{
			"bufferView":2,
			"componentType":5126,
			"count":1179,
			"type":"VEC3"
		},
		{
			"bufferView":3,
			"componentType":5123,
			"count":2304,
			"type":"SCALAR"
		},
		{
			"bufferView":4,
			"componentType":5126,
			"count":924,
			"max":[
				1.1847717761993408,
				1.862645149230957e-09,
				0.6448699235916138
			],
			"min":[
				-1.3200000524520874,
				-3.725290298461914e-09,
				-0.5399999618530273
			],
			"type":"VEC3"
		},
		{
			"bufferView":5,
			"componentType":5126,
			"count":924,
			"type":"VEC2"
		},
		{
			"bufferView":6,
			"componentType":5126,
			"count":924,
			"type":"VEC3"
		},
		{
			"bufferView":7,
			"componentType":5123,
			"count":1386,
			"type":"SCALAR"
		}
	],
	"bufferViews":[
		{
			"buffer":0,
			"byteLength":14148,
			"byteOffset":0,
			"target":34962
		},
		{
			"buffer":0,
			"byteLength":9432,
			"byteOffset":14148,
			"target":34962
		},
		{
			"buffer":0,
			"byteLength":14148,
			"byteOffset":23580,
			"target":34962
		},
		{
			"buffer":0,
			"byteLength":4608,
			"byteOffset":37728,
			"target":34963
		},
		{
			"buffer":0,
			"byteLength":11088,
			"byteOffset":42336,
			"target":34962
		},
		{
			"buffer":0,
			"byteLength":7392,
			"byteOffset":53424,
			"target":34962
		},
		{
			"buffer":0,
			"byteLength":11088,
			"byteOffset":60816,
			"target":34962
		},
		{
			"buffer":0,
			"byteLength":2772,
			"byteOffset":71904,
			"target":34963
		}
	],
	"buffers":[
		{
			"byteLength":74676,
			"uri":"data:application/octet-stream;base64,"
		}
	]
}
