{
	"asset":{
		"generator":"Khronos glTF Blender I/O v3.6.27",
		"version":"2.0"
	},
	"scene":0,
	"scenes":[
		{
			"name":"Scene",
			"nodes":[
				0,
				1,
				2,
				3,
				4,
				5,
				6,
				7
			]
		}
	],
	"nodes":[
		{
			"mesh":0,
			"name":"Pinball Plate"
		},
		{
			"mesh":1,
			"name":"Pinball Menu Glass",
			"translation":[
				1.300226092338562,
				0.0010000000474974513,
				0.03762103617191315
			]
		},
		{
			"mesh":2,
			"name":"Point Display",
			"rotation":[
				0,
				-0.7071068286895752,
				0,
				0.7071068286895752
			],
			"translation":[
				0.9800000190734863,
				0.050999999046325684,
				0.5600000023841858
			]
		},
		{
			"mesh":3,
			"name":"Pinball Plate.Collider"
		},
		{
			"mesh":4,
			"name":"Pinball Plate Frame Collider"
		},
		{
			"mesh":5,
			"name":"Pinball Plate Ground Collider"
		},
		{
			"mesh":6,
			"name":"Pinball Plate Rebound Collider Left"
		},
		{
			"mesh":7,
			"name":"Pinball Plate Rebound Collider Right"
		}
	],
	"materials":[
		{
			"doubleSided":true,
			"name":"Pinball Plate Material",
			"pbrMetallicRoughness":{
				"baseColorTexture":{
					"index":0
				},
				"metallicFactor":0,
				"roughnessFactor":0.5
			}
		}
	],
	"meshes":[
		{
			"name":"Cube.006",
			"primitives":[
				{
					"attributes":{
						"POSITION":0,
						"NORMAL":1,
						"TEXCOORD_0":2
					},
					"indices":3,
					"material":0
				}
			]
		},
		{
			"name":"Cylinder.013",
			"primitives":[
				{
					"attributes":{
						"POSITION":4,
						"NORMAL":5,
						"TEXCOORD_0":6
					},
					"indices":7
				}
			]
		},
		{
			"name":"Plane",
			"primitives":[
				{
					"attributes":{
						"POSITION":8,
						"NORMAL":9,
						"TEXCOORD_0":10
					},
					"indices":11
				}
			]
		},
		{
			"name":"Cube.008",
			"primitives":[
				{
					"attributes":{
						"POSITION":12,
						"NORMAL":13,
						"TEXCOORD_0":14
					},
					"indices":15
				}
			]
		},
		{
			"name":"Cube.011",
			"primitives":[
				{
					"attributes":{
						"POSITION":16,
						"NORMAL":17,
						"TEXCOORD_0":18
					},
					"indices":19
				}
			]
		},
		{
			"name":"Cube.018",
			"primitives":[
				{
					"attributes":{
						"POSITION":20,
						"NORMAL":21,
						"TEXCOORD_0":22
					},
					"indices":23
				}
			]
		},
		{
			"name":"Cube.023",
			"primitives":[
				{
					"attributes":{
						"POSITION":24,
						"NORMAL":25,
						"TEXCOORD_0":26
					},
					"indices":27
				}
			]
		},
		{
			"name":"Cube.022",
			"primitives":[
				{
					"attributes":{
						"POSITION":28,
						"NORMAL":29,
						"TEXCOORD_0":30
					},
					"indices":31
				}
			]
		}
	],
	"textures":[
		{
			"sampler":0,
			"source":0
		}
	],
	"images":[
		{
			"bufferView":4,
			"mimeType":"image/png",
			"name":"Pinball Plate Texture"
		}
	],
	"accessors":[
		{
			"bufferView":0,
			"componentType":5126,
			"count":976,
			"max":[
				1.2999999523162842,
				0.04999999701976776,
				0.7200002074241638
			],
			"min":[
				-1.2999999523162842,
				-0.17266425490379333,
				-0.7199999690055847
			],
			"type":"VEC3"
		},
		{
			"bufferView":1,
			"componentType":5126,
			"count":976,
			"type":"VEC3"
		},
		{
			"bufferView":2,
			"componentType":5126,
			"count":976,
			"type":"VEC2"
		},
		{
			"bufferView":3,
			"componentType":5123,
			"count":2598,
			"type":"SCALAR"
		},
		{
			"bufferView":5,
			"componentType":5126,
			"count":96,
			"max":[
				-0.7373653650283813,
				-0.04599994421005249,
				0.47437307238578796
			],
			"min":[
				-0.9999943375587463,
				-0.05100006237626076,
				-0.4684150815010071
			],
			"type":"VEC3"
		},
		{
			"bufferView":6,
			"componentType":5126,
			"count":96,
			"type":"VEC3"
		},
		{
			"bufferView":7,
			"componentType":5126,
			"count":96,
			"type":"VEC2"
		},
		{
			"bufferView":8,
			"componentType":5123,
			"count":252,
			"type":"SCALAR"
		},
		{
			"bufferView":9,
			"componentType":5126,
			"count":4,
			"max":[
				0.1119999885559082,
				0,
				0.05800008773803711
			],
			"min":[
				-0.1119999885559082,
				0,
				-0.05799996852874756
			],
			"type":"VEC3"
		},
		{
			"bufferView":10,
			"componentType":5126,
			"count":4,
			"type":"VEC3"
		},
		{
			"bufferView":11,
			"componentType":5126,
			"count":4,
			"type":"VEC2"
		},
		{
			"bufferView":12,
			"componentType":5123,
			"count":6,
			"type":"SCALAR"
		},
		{
			"bufferView":13,
			"componentType":5126,
			"count":398,
			"max":[
				1.2999999523162842,
				0.05000000074505806,
				0.7200002074241638
			],
			"min":[
				-1.2999999523162842,
				-0.17266425490379333,
				-0.7204999923706055
			],
			"type":"VEC3"
		},
		{
			"bufferView":14,
			"componentType":5126,
			"count":398,
			"type":"VEC3"
		},
		{
			"bufferView":15,
			"componentType":5126,
			"count":398,
			"type":"VEC2"
		},
		{
			"bufferView":16,
			"componentType":5123,
			"count":714,
			"type":"SCALAR"
		},
		{
			"bufferView":17,
			"componentType":5126,
			"count":163,
			"max":[
				1.280635952949524,
				0.05000000074505806,
				0.6840000152587891
			],
			"min":[
				-1.2349998950958252,
				-0.03903530538082123,
				-0.6839998364448547
			],
			"type":"VEC3"
		},
		{
			"bufferView":18,
			"componentType":5126,
			"count":163,
			"type":"VEC3"
		},
		{
			"bufferView":19,
			"componentType":5126,
			"count":163,
			"type":"VEC2"
		},
		{
			"bufferView":20,
			"componentType":5123,
			"count":294,
			"type":"SCALAR"
		},
		{
			"bufferView":21,
			"componentType":5126,
			"count":24,
			"max":[
				1.2999999523162842,
				-0.044980406761169434,
				0.7200002074241638
			],
			"min":[
				-1.2999999523162842,
				-0.0700000524520874,
				-0.7199999690055847
			],
			"type":"VEC3"
		},
		{
			"bufferView":22,
			"componentType":5126,
			"count":24,
			"type":"VEC3"
		},
		{
			"bufferView":23,
			"componentType":5126,
			"count":24,
			"type":"VEC2"
		},
		{
			"bufferView":24,
			"componentType":5123,
			"count":36,
			"type":"SCALAR"
		},
		{
			"bufferView":25,
			"componentType":5126,
			"count":36,
			"max":[
				0.8422034978866577,
				0.026198958978056908,
				0.6040099859237671
			],
			"min":[
				0.40865734219551086,
				-0.03903530538082123,
				0.3152863383293152
			],
			"type":"VEC3"
		},
		{
			"bufferView":26,
			"componentType":5126,
			"count":36,
			"type":"VEC3"
		},
		{
			"bufferView":27,
			"componentType":5126,
			"count":36,
			"type":"VEC2"
		},
		{
			"bufferView":28,
			"componentType":5123,
			"count":72,
			"type":"SCALAR"
		},
		{
			"bufferView":29,
			"componentType":5126,
			"count":40,
			"max":[
				0.841914713382721,
				0.026198958978056908,
				-0.24241456389427185
			],
			"min":[
				0.4455432891845703,
				-0.03903530538082123,
				-0.5311877727508545
			],
			"type":"VEC3"
		},
		{
			"bufferView":30,
			"componentType":5126,
			"count":40,
			"type":"VEC3"
		},
		{
			"bufferView":31,
			"componentType":5126,
			"count":40,
			"type":"VEC2"
		},
		{
			"bufferView":32,
			"componentType":5123,
			"count":72,
			"type":"SCALAR"
		}
	],
	"bufferViews":[
		{
			"buffer":0,
			"byteLength":11712,
			"byteOffset":0,
			"target":34962
		},
		{
			"buffer":0,
			"byteLength":11712,
			"byteOffset":11712,
			"target":34962
		},
		{
			"buffer":0,
			"byteLength":7808,
			"byteOffset":23424,
			"target":34962
		},
		{
			"buffer":0,
			"byteLength":5196,
			"byteOffset":31232,
			"target":34963
		},
		{
			"buffer":0,
			"byteLength":474482,
			"byteOffset":36428
		},
		{
			"buffer":0,
			"byteLength":1152,
			"byteOffset":510912,
			"target":34962
		},
		{
			"buffer":0,
			"byteLength":1152,
			"byteOffset":512064,
			"target":34962
		},
		{
			"buffer":0,
			"byteLength":768,
			"byteOffset":513216,
			"target":34962
		},
		{
			"buffer":0,
			"byteLength":504,
			"byteOffset":513984,
			"target":34963
		},
		{
			"buffer":0,
			"byteLength":48,
			"byteOffset":514488,
			"target":34962
		},
		{
			"buffer":0,
			"byteLength":48,
			"byteOffset":514536,
			"target":34962
		},
		{
			"buffer":0,
			"byteLength":32,
			"byteOffset":514584,
			"target":34962
		},
		{
			"buffer":0,
			"byteLength":12,
			"byteOffset":514616,
			"target":34963
		},
		{
			"buffer":0,
			"byteLength":4776,
			"byteOffset":514628,
			"target":34962
		},
		{
			"buffer":0,
			"byteLength":4776,
			"byteOffset":519404,
			"target":34962
		},
		{
			"buffer":0,
			"byteLength":3184,
			"byteOffset":524180,
			"target":34962
		},
		{
			"buffer":0,
			"byteLength":1428,
			"byteOffset":527364,
			"target":34963
		},
		{
			"buffer":0,
			"byteLength":1956,
			"byteOffset":528792,
			"target":34962
		},
		{
			"buffer":0,
			"byteLength":1956,
			"byteOffset":530748,
			"target":34962
		},
		{
			"buffer":0,
			"byteLength":1304,
			"byteOffset":532704,
			"target":34962
		},
		{
			"buffer":0,
			"byteLength":588,
			"byteOffset":534008,
			"target":34963
		},
		{
			"buffer":0,
			"byteLength":288,
			"byteOffset":534596,
			"target":34962
		},
		{
			"buffer":0,
			"byteLength":288,
			"byteOffset":534884,
			"target":34962
		},
		{
			"buffer":0,
			"byteLength":192,
			"byteOffset":535172,
			"target":34962
		},
		{
			"buffer":0,
			"byteLength":72,
			"byteOffset":535364,
			"target":34963
		},
		{
			"buffer":0,
			"byteLength":432,
			"byteOffset":535436,
			"target":34962
		},
		{
			"buffer":0,
			"byteLength":432,
			"byteOffset":535868,
			"target":34962
		},
		{
			"buffer":0,
			"byteLength":288,
			"byteOffset":536300,
			"target":34962
		},
		{
			"buffer":0,
			"byteLength":144,
			"byteOffset":536588,
			"target":34963
		},
		{
			"buffer":0,
			"byteLength":480,
			"byteOffset":536732,
			"target":34962
		},
		{
			"buffer":0,
			"byteLength":480,
			"byteOffset":537212,
			"target":34962
		},
		{
			"buffer":0,
			"byteLength":320,
			"byteOffset":537692,
			"target":34962
		},
		{
			"buffer":0,
			"byteLength":144,
			"byteOffset":538012,
			"target":34963
		}
	],
	"samplers":[
		{
			"magFilter":9729,
			"minFilter":9987
		}
	],
	"buffers":[
		{
			"byteLength":538156,
			"uri":"data:application/octet-stream;base64,"
		}
	]
}
