{
	"asset":{
		"generator":"Khronos glTF Blender I/O v3.6.27",
		"version":"2.0"
	},
	"scene":0,
	"scenes":[
		{
			"name":"Scene",
			"nodes":[
				0,
				1,
				2,
				3,
				4,
				5,
				6,
				7,
				8
			]
		}
	],
	"nodes":[
		{
			"mesh":0,
			"name":"Pinball Plate Frame Collider"
		},
		{
			"mesh":1,
			"name":"Pinball Menu Glass",
			"translation":[
				1.300226092338562,
				0.0010000000474974513,
				0.03762103617191315
			]
		},
		{
			"mesh":2,
			"name":"Pinball Plate Frame"
		},
		{
			"mesh":3,
			"name":"Pinball Plate Ground"
		},
		{
			"mesh":4,
			"name":"Pinball Plate Ground Collider"
		},
		{
			"mesh":5,
			"name":"Pinball Plate Rebound Left"
		},
		{
			"mesh":6,
			"name":"Pinball Plate Rebound Right"
		},
		{
			"mesh":7,
			"name":"Pinball Plate Rebound Collider Right"
		},
		{
			"mesh":8,
			"name":"Pinball Plate Rebound Collider Left"
		}
	],
	"materials":[
		{
			"doubleSided":true,
			"name":"Pinball Frame Material",
			"pbrMetallicRoughness":{
				"baseColorTexture":{
					"index":0
				},
				"metallicFactor":0,
				"roughnessFactor":0.5
			}
		},
		{
			"doubleSided":true,
			"name":"Pinball Ground Material",
			"pbrMetallicRoughness":{
				"baseColorTexture":{
					"index":1
				},
				"metallicFactor":0,
				"roughnessFactor":0.5
			}
		},
		{
			"doubleSided":true,
			"name":"Pinball Rebound Left Material",
			"pbrMetallicRoughness":{
				"baseColorTexture":{
					"index":2
				},
				"metallicFactor":0,
				"roughnessFactor":0.5
			}
		},
		{
			"doubleSided":true,
			"name":"Pinball Rebound Right Material",
			"pbrMetallicRoughness":{
				"baseColorTexture":{
					"index":3
				},
				"metallicFactor":0,
				"roughnessFactor":0.5
			}
		}
	],
	"meshes":[
		{
			"name":"Cube.011",
			"primitives":[
				{
					"attributes":{
						"POSITION":0,
						"NORMAL":1,
						"TEXCOORD_0":2
					},
					"indices":3
				}
			]
		},
		{
			"name":"Cylinder.013",
			"primitives":[
				{
					"attributes":{
						"POSITION":4,
						"NORMAL":5,
						"TEXCOORD_0":6
					},
					"indices":7
				}
			]
		},
		{
			"name":"Cube.012",
			"primitives":[
				{
					"attributes":{
						"POSITION":8,
						"NORMAL":9,
						"TEXCOORD_0":10
					},
					"indices":11,
					"material":0
				}
			]
		},
		{
			"name":"Cube.014",
			"primitives":[
				{
					"attributes":{
						"POSITION":12,
						"NORMAL":13,
						"TEXCOORD_0":14
					},
					"indices":15,
					"material":1
				}
			]
		},
		{
			"name":"Cube.018",
			"primitives":[
				{
					"attributes":{
						"POSITION":16,
						"NORMAL":17,
						"TEXCOORD_0":18
					},
					"indices":19
				}
			]
		},
		{
			"name":"Cube.019",
			"primitives":[
				{
					"attributes":{
						"POSITION":20,
						"NORMAL":21,
						"TEXCOORD_0":22
					},
					"indices":23,
					"material":2
				}
			]
		},
		{
			"name":"Cube.020",
			"primitives":[
				{
					"attributes":{
						"POSITION":24,
						"NORMAL":25,
						"TEXCOORD_0":26
					},
					"indices":27,
					"material":3
				}
			]
		},
		{
			"name":"Cube.022",
			"primitives":[
				{
					"attributes":{
						"POSITION":28,
						"NORMAL":29,
						"TEXCOORD_0":30
					},
					"indices":31
				}
			]
		},
		{
			"name":"Cube.023",
			"primitives":[
				{
					"attributes":{
						"POSITION":32,
						"NORMAL":33,
						"TEXCOORD_0":34
					},
					"indices":35
				}
			]
		}
	],
	"textures":[
		{
			"sampler":0,
			"source":0
		},
		{
			"sampler":0,
			"source":0
		},
		{
			"sampler":0,
			"source":0
		},
		{
			"sampler":0,
			"source":0
		}
	],
	"images":[
		{
			"bufferView":12,
			"mimeType":"image/png",
			"name":"Untitled"
		}
	],
	"accessors":[
		{
			"bufferView":0,
			"componentType":5126,
			"count":190,
			"max":[
				1.280635952949524,
				0.05000000074505806,
				0.6840000152587891
			],
			"min":[
				-1.2349998950958252,
				-0.03903530538082123,
				-0.6839998364448547
			],
			"type":"VEC3"
		},
		{
			"bufferView":1,
			"componentType":5126,
			"count":190,
			"type":"VEC3"
		},
		{
			"bufferView":2,
			"componentType":5126,
			"count":190,
			"type":"VEC2"
		},
		{
			"bufferView":3,
			"componentType":5123,
			"count":294,
			"type":"SCALAR"
		},
		{
			"bufferView":4,
			"componentType":5126,
			"count":132,
			"max":[
				-0.7373653650283813,
				-0.04599994421005249,
				0.47437307238578796
			],
			"min":[
				-0.9999943375587463,
				-0.05100006237626076,
				-0.4684150815010071
			],
			"type":"VEC3"
		},
		{
			"bufferView":5,
			"componentType":5126,
			"count":132,
			"type":"VEC3"
		},
		{
			"bufferView":6,
			"componentType":5126,
			"count":132,
			"type":"VEC2"
		},
		{
			"bufferView":7,
			"componentType":5123,
			"count":252,
			"type":"SCALAR"
		},
		{
			"bufferView":8,
			"componentType":5126,
			"count":852,
			"max":[
				1.2999999523162842,
				0.04999999701976776,
				0.7200002074241638
			],
			"min":[
				-1.2999999523162842,
				-0.04511765390634537,
				-0.7199999690055847
			],
			"type":"VEC3"
		},
		{
			"bufferView":9,
			"componentType":5126,
			"count":852,
			"type":"VEC3"
		},
		{
			"bufferView":10,
			"componentType":5126,
			"count":852,
			"type":"VEC2"
		},
		{
			"bufferView":11,
			"componentType":5123,
			"count":1686,
			"type":"SCALAR"
		},
		{
			"bufferView":13,
			"componentType":5126,
			"count":156,
			"max":[
				1.2999999523162842,
				-0.044980406761169434,
				0.7200002074241638
			],
			"min":[
				-1.2999999523162842,
				-0.0700000524520874,
				-0.7199999690055847
			],
			"type":"VEC3"
		},
		{
			"bufferView":14,
			"componentType":5126,
			"count":156,
			"type":"VEC3"
		},
		{
			"bufferView":15,
			"componentType":5126,
			"count":156,
			"type":"VEC2"
		},
		{
			"bufferView":16,
			"componentType":5123,
			"count":300,
			"type":"SCALAR"
		},
		{
			"bufferView":17,
			"componentType":5126,
			"count":24,
			"max":[
				1.2999999523162842,
				-0.044980406761169434,
				0.7200002074241638
			],
			"min":[
				-1.2999999523162842,
				-0.0700000524520874,
				-0.7199999690055847
			],
			"type":"VEC3"
		},
		{
			"bufferView":18,
			"componentType":5126,
			"count":24,
			"type":"VEC3"
		},
		{
			"bufferView":19,
			"componentType":5126,
			"count":24,
			"type":"VEC2"
		},
		{
			"bufferView":20,
			"componentType":5123,
			"count":36,
			"type":"SCALAR"
		},
		{
			"bufferView":21,
			"componentType":5126,
			"count":168,
			"max":[
				0.8422034978866577,
				0.02619895711541176,
				0.6053604483604431
			],
			"min":[
				0.4106341004371643,
				-0.044999994337558746,
				0.3152863383293152
			],
			"type":"VEC3"
		},
		{
			"bufferView":22,
			"componentType":5126,
			"count":168,
			"type":"VEC3"
		},
		{
			"bufferView":23,
			"componentType":5126,
			"count":168,
			"type":"VEC2"
		},
		{
			"bufferView":24,
			"componentType":5123,
			"count":318,
			"type":"SCALAR"
		},
		{
			"bufferView":25,
			"componentType":5126,
			"count":154,
			"max":[
				0.841914713382721,
				0.02619895711541176,
				-0.24241456389427185
			],
			"min":[
				0.44519245624542236,
				-0.044999994337558746,
				-0.5311877727508545
			],
			"type":"VEC3"
		},
		{
			"bufferView":26,
			"componentType":5126,
			"count":154,
			"type":"VEC3"
		},
		{
			"bufferView":27,
			"componentType":5126,
			"count":154,
			"type":"VEC2"
		},
		{
			"bufferView":28,
			"componentType":5123,
			"count":288,
			"type":"SCALAR"
		},
		{
			"bufferView":29,
			"componentType":5126,
			"count":48,
			"max":[
				0.841914713382721,
				0.026198958978056908,
				-0.24241456389427185
			],
			"min":[
				0.4455432891845703,
				-0.03903530538082123,
				-0.5311877727508545
			],
			"type":"VEC3"
		},
		{
			"bufferView":30,
			"componentType":5126,
			"count":48,
			"type":"VEC3"
		},
		{
			"bufferView":31,
			"componentType":5126,
			"count":48,
			"type":"VEC2"
		},
		{
			"bufferView":32,
			"componentType":5123,
			"count":72,
			"type":"SCALAR"
		},
		{
			"bufferView":33,
			"componentType":5126,
			"count":48,
			"max":[
				0.8422034978866577,
				0.026198958978056908,
				0.6040099859237671
			],
			"min":[
				0.40865734219551086,
				-0.03903530538082123,
				0.3152863383293152
			],
			"type":"VEC3"
		},
		{
			"bufferView":34,
			"componentType":5126,
			"count":48,
			"type":"VEC3"
		},
		{
			"bufferView":35,
			"componentType":5126,
			"count":48,
			"type":"VEC2"
		},
		{
			"bufferView":36,
			"componentType":5123,
			"count":72,
			"type":"SCALAR"
		}
	],
	"bufferViews":[
		{
			"buffer":0,
			"byteLength":2280,
			"byteOffset":0,
			"target":34962
		},
		{
			"buffer":0,
			"byteLength":2280,
			"byteOffset":2280,
			"target":34962
		},
		{
			"buffer":0,
			"byteLength":1520,
			"byteOffset":4560,
			"target":34962
		},
		{
			"buffer":0,
			"byteLength":588,
			"byteOffset":6080,
			"target":34963
		},
		{
			"buffer":0,
			"byteLength":1584,
			"byteOffset":6668,
			"target":34962
		},
		{
			"buffer":0,
			"byteLength":1584,
			"byteOffset":8252,
			"target":34962
		},
		{
			"buffer":0,
			"byteLength":1056,
			"byteOffset":9836,
			"target":34962
		},
		{
			"buffer":0,
			"byteLength":504,
			"byteOffset":10892,
			"target":34963
		},
		{
			"buffer":0,
			"byteLength":10224,
			"byteOffset":11396,
			"target":34962
		},
		{
			"buffer":0,
			"byteLength":10224,
			"byteOffset":21620,
			"target":34962
		},
		{
			"buffer":0,
			"byteLength":6816,
			"byteOffset":31844,
			"target":34962
		},
		{
			"buffer":0,
			"byteLength":3372,
			"byteOffset":38660,
			"target":34963
		},
		{
			"buffer":0,
			"byteLength":40288,
			"byteOffset":42032
		},
		{
			"buffer":0,
			"byteLength":1872,
			"byteOffset":82320,
			"target":34962
		},
		{
			"buffer":0,
			"byteLength":1872,
			"byteOffset":84192,
			"target":34962
		},
		{
			"buffer":0,
			"byteLength":1248,
			"byteOffset":86064,
			"target":34962
		},
		{
			"buffer":0,
			"byteLength":600,
			"byteOffset":87312,
			"target":34963
		},
		{
			"buffer":0,
			"byteLength":288,
			"byteOffset":87912,
			"target":34962
		},
		{
			"buffer":0,
			"byteLength":288,
			"byteOffset":88200,
			"target":34962
		},
		{
			"buffer":0,
			"byteLength":192,
			"byteOffset":88488,
			"target":34962
		},
		{
			"buffer":0,
			"byteLength":72,
			"byteOffset":88680,
			"target":34963
		},
		{
			"buffer":0,
			"byteLength":2016,
			"byteOffset":88752,
			"target":34962
		},
		{
			"buffer":0,
			"byteLength":2016,
			"byteOffset":90768,
			"target":34962
		},
		{
			"buffer":0,
			"byteLength":1344,
			"byteOffset":92784,
			"target":34962
		},
		{
			"buffer":0,
			"byteLength":636,
			"byteOffset":94128,
			"target":34963
		},
		{
			"buffer":0,
			"byteLength":1848,
			"byteOffset":94764,
			"target":34962
		},
		{
			"buffer":0,
			"byteLength":1848,
			"byteOffset":96612,
			"target":34962
		},
		{
			"buffer":0,
			"byteLength":1232,
			"byteOffset":98460,
			"target":34962
		},
		{
			"buffer":0,
			"byteLength":576,
			"byteOffset":99692,
			"target":34963
		},
		{
			"buffer":0,
			"byteLength":576,
			"byteOffset":100268,
			"target":34962
		},
		{
			"buffer":0,
			"byteLength":576,
			"byteOffset":100844,
			"target":34962
		},
		{
			"buffer":0,
			"byteLength":384,
			"byteOffset":101420,
			"target":34962
		},
		{
			"buffer":0,
			"byteLength":144,
			"byteOffset":101804,
			"target":34963
		},
		{
			"buffer":0,
			"byteLength":576,
			"byteOffset":101948,
			"target":34962
		},
		{
			"buffer":0,
			"byteLength":576,
			"byteOffset":102524,
			"target":34962
		},
		{
			"buffer":0,
			"byteLength":384,
			"byteOffset":103100,
			"target":34962
		},
		{
			"buffer":0,
			"byteLength":144,
			"byteOffset":103484,
			"target":34963
		}
	],
	"samplers":[
		{
			"magFilter":9729,
			"minFilter":9987
		}
	],
	"buffers":[
		{
			"byteLength":103628,
			"uri":"data:application/octet-stream;base64,"
		}
	]
}
