{
	"asset":{
		"generator":"Khronos glTF Blender I/O v3.5.30",
		"version":"2.0"
	},
	"scene":0,
	"scenes":[
		{
			"name":"Scene",
			"nodes":[
				0,
				1,
				2
			]
		}
	],
	"nodes":[
		{
			"mesh":0,
			"name":"Flipper Right",
			"rotation":[
				0,
				0.3173046410083771,
				0,
				0.948323667049408
			],
			"translation":[
				83.1385726928711,
				-0.8282697200775146,
				-24.54792594909668
			]
		},
		{
			"mesh":1,
			"name":"Pinball Plate"
		},
		{
			"mesh":2,
			"name":"Flipper Left",
			"rotation":[
				0,
				-0.3173046410083771,
				0,
				0.948323667049408
			],
			"translation":[
				83.13129425048828,
				-0.884986400604248,
				31.87005615234375
			]
		}
	],
	"materials":[
		{
			"doubleSided":true,
			"name":"Material",
			"pbrMetallicRoughness":{
				"metallicFactor":0,
				"roughnessFactor":0.5
			}
		}
	],
	"meshes":[
		{
			"name":"Cube.002",
			"primitives":[
				{
					"attributes":{
						"POSITION":0,
						"TEXCOORD_0":1,
						"NORMAL":2
					},
					"indices":3,
					"material":0
				}
			]
		},
		{
			"name":"Cube.006",
			"primitives":[
				{
					"attributes":{
						"POSITION":4,
						"TEXCOORD_0":5,
						"NORMAL":6
					},
					"indices":7,
					"material":0
				}
			]
		},
		{
			"name":"Cube.003",
			"primitives":[
				{
					"attributes":{
						"POSITION":8,
						"TEXCOORD_0":9,
						"NORMAL":10
					},
					"indices":11,
					"material":0
				}
			]
		}
	],
	"accessors":[
		{
			"bufferView":0,
			"componentType":5126,
			"count":192,
			"max":[
				3.0529861450195312,
				3.4222261905670166,
				23.41982078552246
			],
			"min":[
				-3.0529937744140625,
				-3.4222261905670166,
				-2.505521774291992
			],
			"type":"VEC3"
		},
		{
			"bufferView":1,
			"componentType":5126,
			"count":192,
			"type":"VEC2"
		},
		{
			"bufferView":2,
			"componentType":5126,
			"count":192,
			"type":"VEC3"
		},
		{
			"bufferView":3,
			"componentType":5123,
			"count":372,
			"type":"SCALAR"
		},
		{
			"bufferView":4,
			"componentType":5126,
			"count":1067,
			"max":[
				130,
				5,
				72.0000228881836
			],
			"min":[
				-130,
				-17.26642608642578,
				-72
			],
			"type":"VEC3"
		},
		{
			"bufferView":5,
			"componentType":5126,
			"count":1067,
			"type":"VEC2"
		},
		{
			"bufferView":6,
			"componentType":5126,
			"count":1067,
			"type":"VEC3"
		},
		{
			"bufferView":7,
			"componentType":5123,
			"count":2031,
			"type":"SCALAR"
		},
		{
			"bufferView":8,
			"componentType":5126,
			"count":192,
			"max":[
				3.0529961585998535,
				3.478942394256592,
				2.5055198669433594
			],
			"min":[
				-3.0529837608337402,
				-3.478942394256592,
				-23.419818878173828
			],
			"type":"VEC3"
		},
		{
			"bufferView":9,
			"componentType":5126,
			"count":192,
			"type":"VEC2"
		},
		{
			"bufferView":10,
			"componentType":5126,
			"count":192,
			"type":"VEC3"
		},
		{
			"bufferView":11,
			"componentType":5123,
			"count":372,
			"type":"SCALAR"
		}
	],
	"bufferViews":[
		{
			"buffer":0,
			"byteLength":2304,
			"byteOffset":0,
			"target":34962
		},
		{
			"buffer":0,
			"byteLength":1536,
			"byteOffset":2304,
			"target":34962
		},
		{
			"buffer":0,
			"byteLength":2304,
			"byteOffset":3840,
			"target":34962
		},
		{
			"buffer":0,
			"byteLength":744,
			"byteOffset":6144,
			"target":34963
		},
		{
			"buffer":0,
			"byteLength":12804,
			"byteOffset":6888,
			"target":34962
		},
		{
			"buffer":0,
			"byteLength":8536,
			"byteOffset":19692,
			"target":34962
		},
		{
			"buffer":0,
			"byteLength":12804,
			"byteOffset":28228,
			"target":34962
		},
		{
			"buffer":0,
			"byteLength":4062,
			"byteOffset":41032,
			"target":34963
		},
		{
			"buffer":0,
			"byteLength":2304,
			"byteOffset":45096,
			"target":34962
		},
		{
			"buffer":0,
			"byteLength":1536,
			"byteOffset":47400,
			"target":34962
		},
		{
			"buffer":0,
			"byteLength":2304,
			"byteOffset":48936,
			"target":34962
		},
		{
			"buffer":0,
			"byteLength":744,
			"byteOffset":51240,
			"target":34963
		}
	],
	"buffers":[
		{
			"byteLength":51984,
			"uri":"data:application/octet-stream;base64,"
		}
	]
}
