{
	"asset":{
		"generator":"Khronos glTF Blender I/O v3.6.27",
		"version":"2.0"
	},
	"scene":0,
	"scenes":[
		{
			"name":"Scene",
			"nodes":[
				0,
				1
			]
		}
	],
	"nodes":[
		{
			"mesh":0,
			"name":"Progress Bar",
			"translation":[
				0.0029999990947544575,
				0.0030000002589076757,
				0.03400000184774399
			]
		},
		{
			"mesh":1,
			"name":"Progress Bar Frame"
		}
	],
	"meshes":[
		{
			"name":"Cube.017",
			"primitives":[
				{
					"attributes":{
						"POSITION":0,
						"NORMAL":1,
						"TEXCOORD_0":2
					},
					"indices":3
				}
			]
		},
		{
			"name":"Sphere.004",
			"primitives":[
				{
					"attributes":{
						"POSITION":4,
						"NORMAL":5,
						"TEXCOORD_0":6
					},
					"indices":7
				}
			]
		}
	],
	"accessors":[
		{
			"bufferView":0,
			"componentType":5126,
			"count":24,
			"max":[
				0.018000001087784767,
				1.7881397751384753e-10,
				0
			],
			"min":[
				0,
				-0.001000001560896635,
				-0.06600000709295273
			],
			"type":"VEC3"
		},
		{
			"bufferView":1,
			"componentType":5126,
			"count":24,
			"type":"VEC3"
		},
		{
			"bufferView":2,
			"componentType":5126,
			"count":24,
			"type":"VEC2"
		},
		{
			"bufferView":3,
			"componentType":5123,
			"count":36,
			"type":"SCALAR"
		},
		{
			"bufferView":4,
			"componentType":5126,
			"count":51,
			"max":[
				0.02200000360608101,
				0.0029999997932463884,
				0.03500000014901161
			],
			"min":[
				0.0019573080353438854,
				0.0009999808389693499,
				-0.033000439405441284
			],
			"type":"VEC3"
		},
		{
			"bufferView":5,
			"componentType":5126,
			"count":51,
			"type":"VEC3"
		},
		{
			"bufferView":6,
			"componentType":5126,
			"count":51,
			"type":"VEC2"
		},
		{
			"bufferView":7,
			"componentType":5123,
			"count":96,
			"type":"SCALAR"
		}
	],
	"bufferViews":[
		{
			"buffer":0,
			"byteLength":288,
			"byteOffset":0,
			"target":34962
		},
		{
			"buffer":0,
			"byteLength":288,
			"byteOffset":288,
			"target":34962
		},
		{
			"buffer":0,
			"byteLength":192,
			"byteOffset":576,
			"target":34962
		},
		{
			"buffer":0,
			"byteLength":72,
			"byteOffset":768,
			"target":34963
		},
		{
			"buffer":0,
			"byteLength":612,
			"byteOffset":840,
			"target":34962
		},
		{
			"buffer":0,
			"byteLength":612,
			"byteOffset":1452,
			"target":34962
		},
		{
			"buffer":0,
			"byteLength":408,
			"byteOffset":2064,
			"target":34962
		},
		{
			"buffer":0,
			"byteLength":192,
			"byteOffset":2472,
			"target":34963
		}
	],
	"buffers":[
		{
			"byteLength":2664,
			"uri":"data:application/octet-stream;base64,"
		}
	]
}
