{
	"asset":{
		"generator":"Khronos glTF Blender I/O v3.5.30",
		"version":"2.0"
	},
	"scene":0,
	"scenes":[
		{
			"name":"Scene",
			"nodes":[
				0,
				1,
				2,
				3
			]
		}
	],
	"nodes":[
		{
			"mesh":0,
			"name":"Tower_Base",
			"translation":[
				0,
				-0.025196272879838943,
				0
			]
		},
		{
			"mesh":1,
			"name":"Mounting"
		},
		{
			"mesh":2,
			"name":"Head"
		},
		{
			"mesh":3,
			"name":"Barrel"
		}
	],
	"materials":[
		{
			"doubleSided":true,
			"name":"Tower Base Material",
			"pbrMetallicRoughness":{
				"baseColorFactor":[
					0.8000000715255737,
					0.08656719326972961,
					0.08040072023868561,
					1
				],
				"metallicFactor":0,
				"roughnessFactor":0.5
			}
		}
	],
	"meshes":[
		{
			"name":"Cylinder",
			"primitives":[
				{
					"attributes":{
						"POSITION":0,
						"TEXCOORD_0":1,
						"NORMAL":2
					},
					"indices":3,
					"material":0
				}
			]
		},
		{
			"name":"Cube.005",
			"primitives":[
				{
					"attributes":{
						"POSITION":4,
						"TEXCOORD_0":5,
						"NORMAL":6
					},
					"indices":7
				}
			]
		},
		{
			"name":"Cube.007",
			"primitives":[
				{
					"attributes":{
						"POSITION":8,
						"TEXCOORD_0":9,
						"NORMAL":10
					},
					"indices":11
				}
			]
		},
		{
			"name":"Cylinder.003",
			"primitives":[
				{
					"attributes":{
						"POSITION":12,
						"TEXCOORD_0":13,
						"NORMAL":14
					},
					"indices":15
				}
			]
		}
	],
	"accessors":[
		{
			"bufferView":0,
			"componentType":5126,
			"count":368,
			"max":[
				0.04999924451112747,
				0.030279072001576424,
				0.05000055953860283
			],
			"min":[
				-0.05000075697898865,
				-0.019720926880836487,
				-0.04999944195151329
			],
			"type":"VEC3"
		},
		{
			"bufferView":1,
			"componentType":5126,
			"count":368,
			"type":"VEC2"
		},
		{
			"bufferView":2,
			"componentType":5126,
			"count":368,
			"type":"VEC3"
		},
		{
			"bufferView":3,
			"componentType":5123,
			"count":636,
			"type":"SCALAR"
		},
		{
			"bufferView":4,
			"componentType":5126,
			"count":116,
			"max":[
				0.015036454424262047,
				0.030000105500221252,
				0.02503645420074463
			],
			"min":[
				-0.015036454424262047,
				0.005011497065424919,
				-0.02503645420074463
			],
			"type":"VEC3"
		},
		{
			"bufferView":5,
			"componentType":5126,
			"count":116,
			"type":"VEC2"
		},
		{
			"bufferView":6,
			"componentType":5126,
			"count":116,
			"type":"VEC3"
		},
		{
			"bufferView":7,
			"componentType":5123,
			"count":204,
			"type":"SCALAR"
		},
		{
			"bufferView":8,
			"componentType":5126,
			"count":214,
			"max":[
				0.053295183926820755,
				0.032585252076387405,
				0.019957590848207474
			],
			"min":[
				-0.02740299701690674,
				0.014563703909516335,
				-0.019930578768253326
			],
			"type":"VEC3"
		},
		{
			"bufferView":9,
			"componentType":5126,
			"count":214,
			"type":"VEC2"
		},
		{
			"bufferView":10,
			"componentType":5126,
			"count":214,
			"type":"VEC3"
		},
		{
			"bufferView":11,
			"componentType":5123,
			"count":348,
			"type":"SCALAR"
		},
		{
			"bufferView":12,
			"componentType":5126,
			"count":640,
			"max":[
				0.0905609130859375,
				0.025905665010213852,
				0.0023396501783281565
			],
			"min":[
				0.040038127452135086,
				0.021226365119218826,
				-0.0023396501783281565
			],
			"type":"VEC3"
		},
		{
			"bufferView":13,
			"componentType":5126,
			"count":640,
			"type":"VEC2"
		},
		{
			"bufferView":14,
			"componentType":5126,
			"count":640,
			"type":"VEC3"
		},
		{
			"bufferView":15,
			"componentType":5123,
			"count":1140,
			"type":"SCALAR"
		}
	],
	"bufferViews":[
		{
			"buffer":0,
			"byteLength":4416,
			"byteOffset":0,
			"target":34962
		},
		{
			"buffer":0,
			"byteLength":2944,
			"byteOffset":4416,
			"target":34962
		},
		{
			"buffer":0,
			"byteLength":4416,
			"byteOffset":7360,
			"target":34962
		},
		{
			"buffer":0,
			"byteLength":1272,
			"byteOffset":11776,
			"target":34963
		},
		{
			"buffer":0,
			"byteLength":1392,
			"byteOffset":13048,
			"target":34962
		},
		{
			"buffer":0,
			"byteLength":928,
			"byteOffset":14440,
			"target":34962
		},
		{
			"buffer":0,
			"byteLength":1392,
			"byteOffset":15368,
			"target":34962
		},
		{
			"buffer":0,
			"byteLength":408,
			"byteOffset":16760,
			"target":34963
		},
		{
			"buffer":0,
			"byteLength":2568,
			"byteOffset":17168,
			"target":34962
		},
		{
			"buffer":0,
			"byteLength":1712,
			"byteOffset":19736,
			"target":34962
		},
		{
			"buffer":0,
			"byteLength":2568,
			"byteOffset":21448,
			"target":34962
		},
		{
			"buffer":0,
			"byteLength":696,
			"byteOffset":24016,
			"target":34963
		},
		{
			"buffer":0,
			"byteLength":7680,
			"byteOffset":24712,
			"target":34962
		},
		{
			"buffer":0,
			"byteLength":5120,
			"byteOffset":32392,
			"target":34962
		},
		{
			"buffer":0,
			"byteLength":7680,
			"byteOffset":37512,
			"target":34962
		},
		{
			"buffer":0,
			"byteLength":2280,
			"byteOffset":45192,
			"target":34963
		}
	],
	"buffers":[
		{
			"byteLength":47472,
			"uri":"data:application/octet-stream;base64,"
		}
	]
}
