{
	"asset":{
		"generator":"Khronos glTF Blender I/O v3.6.27",
		"version":"2.0"
	},
	"scene":0,
	"scenes":[
		{
			"name":"Scene",
			"nodes":[
				0,
				1,
				2,
				3,
				4
			]
		}
	],
	"nodes":[
		{
			"mesh":0,
			"name":"Tower Foundation Lid Bottom",
			"translation":[
				0.06000000610947609,
				0,
				0
			]
		},
		{
			"mesh":1,
			"name":"Tower Foundation Lid Top",
			"translation":[
				-0.059999991208314896,
				0,
				0
			]
		},
		{
			"mesh":2,
			"name":"Tower Foundation Ring"
		},
		{
			"mesh":3,
			"name":"Progress Bar",
			"translation":[
				0.0029999990947544575,
				0.0030000002589076757,
				0.03400000184774399
			]
		},
		{
			"mesh":4,
			"name":"Progress Bar Frame"
		}
	],
	"meshes":[
		{
			"name":"Sphere.002",
			"primitives":[
				{
					"attributes":{
						"POSITION":0,
						"NORMAL":1,
						"TEXCOORD_0":2
					},
					"indices":3
				}
			]
		},
		{
			"name":"Sphere.003",
			"primitives":[
				{
					"attributes":{
						"POSITION":4,
						"NORMAL":5,
						"TEXCOORD_0":6
					},
					"indices":7
				}
			]
		},
		{
			"name":"Cylinder.009",
			"primitives":[
				{
					"attributes":{
						"POSITION":8,
						"NORMAL":9,
						"TEXCOORD_0":10
					},
					"indices":11
				}
			]
		},
		{
			"name":"Cube.017",
			"primitives":[
				{
					"attributes":{
						"POSITION":12,
						"NORMAL":13,
						"TEXCOORD_0":14
					},
					"indices":15
				}
			]
		},
		{
			"name":"Sphere.004",
			"primitives":[
				{
					"attributes":{
						"POSITION":16,
						"NORMAL":17,
						"TEXCOORD_0":18
					},
					"indices":19
				}
			]
		}
	],
	"accessors":[
		{
			"bufferView":0,
			"componentType":5126,
			"count":313,
			"max":[
				0,
				0.003333422588184476,
				0.059999994933605194
			],
			"min":[
				-0.06000002473592758,
				0,
				-0.06000000610947609
			],
			"type":"VEC3"
		},
		{
			"bufferView":1,
			"componentType":5126,
			"count":313,
			"type":"VEC3"
		},
		{
			"bufferView":2,
			"componentType":5126,
			"count":313,
			"type":"VEC2"
		},
		{
			"bufferView":3,
			"componentType":5123,
			"count":537,
			"type":"SCALAR"
		},
		{
			"bufferView":4,
			"componentType":5126,
			"count":274,
			"max":[
				0.06000003218650818,
				0.003333422588184476,
				0.06000003218650818
			],
			"min":[
				-7.152559433620809e-09,
				0,
				-0.0599999725818634
			],
			"type":"VEC3"
		},
		{
			"bufferView":5,
			"componentType":5126,
			"count":274,
			"type":"VEC3"
		},
		{
			"bufferView":6,
			"componentType":5126,
			"count":274,
			"type":"VEC2"
		},
		{
			"bufferView":7,
			"componentType":5123,
			"count":426,
			"type":"SCALAR"
		},
		{
			"bufferView":8,
			"componentType":5126,
			"count":386,
			"max":[
				0.060000017285346985,
				0.0002000005915760994,
				0.060000017285346985
			],
			"min":[
				-0.060000017285346985,
				-0.002200000686571002,
				-0.060000017285346985
			],
			"type":"VEC3"
		},
		{
			"bufferView":9,
			"componentType":5126,
			"count":386,
			"type":"VEC3"
		},
		{
			"bufferView":10,
			"componentType":5126,
			"count":386,
			"type":"VEC2"
		},
		{
			"bufferView":11,
			"componentType":5123,
			"count":756,
			"type":"SCALAR"
		},
		{
			"bufferView":12,
			"componentType":5126,
			"count":24,
			"max":[
				0.018000001087784767,
				1.7881397751384753e-10,
				0
			],
			"min":[
				0,
				-0.001000001560896635,
				-0.06600000709295273
			],
			"type":"VEC3"
		},
		{
			"bufferView":13,
			"componentType":5126,
			"count":24,
			"type":"VEC3"
		},
		{
			"bufferView":14,
			"componentType":5126,
			"count":24,
			"type":"VEC2"
		},
		{
			"bufferView":15,
			"componentType":5123,
			"count":36,
			"type":"SCALAR"
		},
		{
			"bufferView":16,
			"componentType":5126,
			"count":51,
			"max":[
				0.02200000360608101,
				0.0029999997932463884,
				0.03500000014901161
			],
			"min":[
				0.0019573080353438854,
				0.0009999808389693499,
				-0.033000439405441284
			],
			"type":"VEC3"
		},
		{
			"bufferView":17,
			"componentType":5126,
			"count":51,
			"type":"VEC3"
		},
		{
			"bufferView":18,
			"componentType":5126,
			"count":51,
			"type":"VEC2"
		},
		{
			"bufferView":19,
			"componentType":5123,
			"count":96,
			"type":"SCALAR"
		}
	],
	"bufferViews":[
		{
			"buffer":0,
			"byteLength":3756,
			"byteOffset":0,
			"target":34962
		},
		{
			"buffer":0,
			"byteLength":3756,
			"byteOffset":3756,
			"target":34962
		},
		{
			"buffer":0,
			"byteLength":2504,
			"byteOffset":7512,
			"target":34962
		},
		{
			"buffer":0,
			"byteLength":1074,
			"byteOffset":10016,
			"target":34963
		},
		{
			"buffer":0,
			"byteLength":3288,
			"byteOffset":11092,
			"target":34962
		},
		{
			"buffer":0,
			"byteLength":3288,
			"byteOffset":14380,
			"target":34962
		},
		{
			"buffer":0,
			"byteLength":2192,
			"byteOffset":17668,
			"target":34962
		},
		{
			"buffer":0,
			"byteLength":852,
			"byteOffset":19860,
			"target":34963
		},
		{
			"buffer":0,
			"byteLength":4632,
			"byteOffset":20712,
			"target":34962
		},
		{
			"buffer":0,
			"byteLength":4632,
			"byteOffset":25344,
			"target":34962
		},
		{
			"buffer":0,
			"byteLength":3088,
			"byteOffset":29976,
			"target":34962
		},
		{
			"buffer":0,
			"byteLength":1512,
			"byteOffset":33064,
			"target":34963
		},
		{
			"buffer":0,
			"byteLength":288,
			"byteOffset":34576,
			"target":34962
		},
		{
			"buffer":0,
			"byteLength":288,
			"byteOffset":34864,
			"target":34962
		},
		{
			"buffer":0,
			"byteLength":192,
			"byteOffset":35152,
			"target":34962
		},
		{
			"buffer":0,
			"byteLength":72,
			"byteOffset":35344,
			"target":34963
		},
		{
			"buffer":0,
			"byteLength":612,
			"byteOffset":35416,
			"target":34962
		},
		{
			"buffer":0,
			"byteLength":612,
			"byteOffset":36028,
			"target":34962
		},
		{
			"buffer":0,
			"byteLength":408,
			"byteOffset":36640,
			"target":34962
		},
		{
			"buffer":0,
			"byteLength":192,
			"byteOffset":37048,
			"target":34963
		}
	],
	"buffers":[
		{
			"byteLength":37240,
			"uri":"data:application/octet-stream;base64,"
		}
	]
}
