{
	"asset":{
		"generator":"Khronos glTF Blender I/O v3.6.27",
		"version":"2.0"
	},
	"scene":0,
	"scenes":[
		{
			"name":"Scene",
			"nodes":[
				0,
				1,
				2,
				3
			]
		}
	],
	"nodes":[
		{
			"mesh":0,
			"name":"Tower Foundation Lid Bottom",
			"translation":[
				0.06000000610947609,
				0,
				0
			]
		},
		{
			"mesh":1,
			"name":"Tower Foundation Lid Top",
			"translation":[
				-0.059999991208314896,
				0,
				0
			]
		},
		{
			"mesh":2,
			"name":"Tower Foundation Ring"
		},
		{
			"mesh":3,
			"name":"Progress Bar",
			"translation":[
				0.0029999990947544575,
				0.0030000002589076757,
				0.03400000184774399
			]
		}
	],
	"meshes":[
		{
			"name":"Sphere.002",
			"primitives":[
				{
					"attributes":{
						"POSITION":0,
						"NORMAL":1,
						"TEXCOORD_0":2
					},
					"indices":3
				}
			]
		},
		{
			"name":"Sphere.003",
			"primitives":[
				{
					"attributes":{
						"POSITION":4,
						"NORMAL":5,
						"TEXCOORD_0":6
					},
					"indices":7
				}
			]
		},
		{
			"name":"Cylinder.009",
			"primitives":[
				{
					"attributes":{
						"POSITION":8,
						"NORMAL":9,
						"TEXCOORD_0":10
					},
					"indices":11
				}
			]
		},
		{
			"name":"Cube.017",
			"primitives":[
				{
					"attributes":{
						"POSITION":12,
						"NORMAL":13,
						"TEXCOORD_0":14
					},
					"indices":15
				}
			]
		}
	],
	"accessors":[
		{
			"bufferView":0,
			"componentType":5126,
			"count":376,
			"max":[
				0,
				0.003333422588184476,
				0.059999994933605194
			],
			"min":[
				-0.06000002473592758,
				0,
				-0.06000000610947609
			],
			"type":"VEC3"
		},
		{
			"bufferView":1,
			"componentType":5126,
			"count":376,
			"type":"VEC3"
		},
		{
			"bufferView":2,
			"componentType":5126,
			"count":376,
			"type":"VEC2"
		},
		{
			"bufferView":3,
			"componentType":5123,
			"count":666,
			"type":"SCALAR"
		},
		{
			"bufferView":4,
			"componentType":5126,
			"count":274,
			"max":[
				0.06000003218650818,
				0.003333422588184476,
				0.06000003218650818
			],
			"min":[
				-7.152559433620809e-09,
				0,
				-0.0599999725818634
			],
			"type":"VEC3"
		},
		{
			"bufferView":5,
			"componentType":5126,
			"count":274,
			"type":"VEC3"
		},
		{
			"bufferView":6,
			"componentType":5126,
			"count":274,
			"type":"VEC2"
		},
		{
			"bufferView":7,
			"componentType":5123,
			"count":426,
			"type":"SCALAR"
		},
		{
			"bufferView":8,
			"componentType":5126,
			"count":386,
			"max":[
				0.060000017285346985,
				0.0002000005915760994,
				0.060000017285346985
			],
			"min":[
				-0.060000017285346985,
				-0.002200000686571002,
				-0.060000017285346985
			],
			"type":"VEC3"
		},
		{
			"bufferView":9,
			"componentType":5126,
			"count":386,
			"type":"VEC3"
		},
		{
			"bufferView":10,
			"componentType":5126,
			"count":386,
			"type":"VEC2"
		},
		{
			"bufferView":11,
			"componentType":5123,
			"count":756,
			"type":"SCALAR"
		},
		{
			"bufferView":12,
			"componentType":5126,
			"count":24,
			"max":[
				0.018000001087784767,
				1.7881397751384753e-10,
				0
			],
			"min":[
				0,
				-0.001000001560896635,
				-0.06600000709295273
			],
			"type":"VEC3"
		},
		{
			"bufferView":13,
			"componentType":5126,
			"count":24,
			"type":"VEC3"
		},
		{
			"bufferView":14,
			"componentType":5126,
			"count":24,
			"type":"VEC2"
		},
		{
			"bufferView":15,
			"componentType":5123,
			"count":36,
			"type":"SCALAR"
		}
	],
	"bufferViews":[
		{
			"buffer":0,
			"byteLength":4512,
			"byteOffset":0,
			"target":34962
		},
		{
			"buffer":0,
			"byteLength":4512,
			"byteOffset":4512,
			"target":34962
		},
		{
			"buffer":0,
			"byteLength":3008,
			"byteOffset":9024,
			"target":34962
		},
		{
			"buffer":0,
			"byteLength":1332,
			"byteOffset":12032,
			"target":34963
		},
		{
			"buffer":0,
			"byteLength":3288,
			"byteOffset":13364,
			"target":34962
		},
		{
			"buffer":0,
			"byteLength":3288,
			"byteOffset":16652,
			"target":34962
		},
		{
			"buffer":0,
			"byteLength":2192,
			"byteOffset":19940,
			"target":34962
		},
		{
			"buffer":0,
			"byteLength":852,
			"byteOffset":22132,
			"target":34963
		},
		{
			"buffer":0,
			"byteLength":4632,
			"byteOffset":22984,
			"target":34962
		},
		{
			"buffer":0,
			"byteLength":4632,
			"byteOffset":27616,
			"target":34962
		},
		{
			"buffer":0,
			"byteLength":3088,
			"byteOffset":32248,
			"target":34962
		},
		{
			"buffer":0,
			"byteLength":1512,
			"byteOffset":35336,
			"target":34963
		},
		{
			"buffer":0,
			"byteLength":288,
			"byteOffset":36848,
			"target":34962
		},
		{
			"buffer":0,
			"byteLength":288,
			"byteOffset":37136,
			"target":34962
		},
		{
			"buffer":0,
			"byteLength":192,
			"byteOffset":37424,
			"target":34962
		},
		{
			"buffer":0,
			"byteLength":72,
			"byteOffset":37616,
			"target":34963
		}
	],
	"buffers":[
		{
			"byteLength":37688,
			"uri":"data:application/octet-stream;base64,"
		}
	]
}
