{
	"asset":{
		"generator":"Khronos glTF Blender I/O v3.6.27",
		"version":"2.0"
	},
	"scene":0,
	"scenes":[
		{
			"name":"Scene",
			"nodes":[
				0,
				1,
				2
			]
		}
	],
	"nodes":[
		{
			"mesh":0,
			"name":"Mounting",
			"translation":[
				0,
				0.009999999776482582,
				0
			]
		},
		{
			"mesh":1,
			"name":"Head",
			"translation":[
				0,
				0.009999999776482582,
				0
			]
		},
		{
			"mesh":2,
			"name":"Barrel",
			"translation":[
				0,
				0.009999999776482582,
				0
			]
		}
	],
	"meshes":[
		{
			"name":"Cube.005",
			"primitives":[
				{
					"attributes":{
						"POSITION":0,
						"NORMAL":1,
						"TEXCOORD_0":2
					},
					"indices":3
				}
			]
		},
		{
			"name":"Cube.007",
			"primitives":[
				{
					"attributes":{
						"POSITION":4,
						"NORMAL":5,
						"TEXCOORD_0":6
					},
					"indices":7
				}
			]
		},
		{
			"name":"Cylinder.003",
			"primitives":[
				{
					"attributes":{
						"POSITION":8,
						"NORMAL":9,
						"TEXCOORD_0":10
					},
					"indices":11
				}
			]
		}
	],
	"accessors":[
		{
			"bufferView":0,
			"componentType":5126,
			"count":116,
			"max":[
				0.025036456063389778,
				0.030000105500221252,
				0.015036456286907196
			],
			"min":[
				-0.025036456063389778,
				0.005011497065424919,
				-0.015036456286907196
			],
			"type":"VEC3"
		},
		{
			"bufferView":1,
			"componentType":5126,
			"count":116,
			"type":"VEC3"
		},
		{
			"bufferView":2,
			"componentType":5126,
			"count":116,
			"type":"VEC2"
		},
		{
			"bufferView":3,
			"componentType":5123,
			"count":204,
			"type":"SCALAR"
		},
		{
			"bufferView":4,
			"componentType":5126,
			"count":214,
			"max":[
				0.019957592710852623,
				0.032585252076387405,
				0.02740299701690674
			],
			"min":[
				-0.019930580630898476,
				0.014563703909516335,
				-0.053295183926820755
			],
			"type":"VEC3"
		},
		{
			"bufferView":5,
			"componentType":5126,
			"count":214,
			"type":"VEC3"
		},
		{
			"bufferView":6,
			"componentType":5126,
			"count":214,
			"type":"VEC2"
		},
		{
			"bufferView":7,
			"componentType":5123,
			"count":348,
			"type":"SCALAR"
		},
		{
			"bufferView":8,
			"componentType":5126,
			"count":640,
			"max":[
				0.0023396569304168224,
				0.025905665010213852,
				-0.040038127452135086
			],
			"min":[
				-0.002339643891900778,
				0.021226365119218826,
				-0.0905609130859375
			],
			"type":"VEC3"
		},
		{
			"bufferView":9,
			"componentType":5126,
			"count":640,
			"type":"VEC3"
		},
		{
			"bufferView":10,
			"componentType":5126,
			"count":640,
			"type":"VEC2"
		},
		{
			"bufferView":11,
			"componentType":5123,
			"count":1140,
			"type":"SCALAR"
		}
	],
	"bufferViews":[
		{
			"buffer":0,
			"byteLength":1392,
			"byteOffset":0,
			"target":34962
		},
		{
			"buffer":0,
			"byteLength":1392,
			"byteOffset":1392,
			"target":34962
		},
		{
			"buffer":0,
			"byteLength":928,
			"byteOffset":2784,
			"target":34962
		},
		{
			"buffer":0,
			"byteLength":408,
			"byteOffset":3712,
			"target":34963
		},
		{
			"buffer":0,
			"byteLength":2568,
			"byteOffset":4120,
			"target":34962
		},
		{
			"buffer":0,
			"byteLength":2568,
			"byteOffset":6688,
			"target":34962
		},
		{
			"buffer":0,
			"byteLength":1712,
			"byteOffset":9256,
			"target":34962
		},
		{
			"buffer":0,
			"byteLength":696,
			"byteOffset":10968,
			"target":34963
		},
		{
			"buffer":0,
			"byteLength":7680,
			"byteOffset":11664,
			"target":34962
		},
		{
			"buffer":0,
			"byteLength":7680,
			"byteOffset":19344,
			"target":34962
		},
		{
			"buffer":0,
			"byteLength":5120,
			"byteOffset":27024,
			"target":34962
		},
		{
			"buffer":0,
			"byteLength":2280,
			"byteOffset":32144,
			"target":34963
		}
	],
	"buffers":[
		{
			"byteLength":34424,
			"uri":"data:application/octet-stream;base64,"
		}
	]
}
