{
	"asset":{
		"generator":"Khronos glTF Blender I/O v3.5.30",
		"version":"2.0"
	},
	"scene":0,
	"scenes":[
		{
			"name":"Scene",
			"nodes":[
				0,
				1
			]
		}
	],
	"nodes":[
		{
			"mesh":0,
			"name":"Tower_Base",
			"translation":[
				0,
				-0.025196272879838943,
				0
			]
		},
		{
			"mesh":1,
			"name":"Tower_Top_Tesla",
			"translation":[
				0,
				-0.009715910069644451,
				0
			]
		}
	],
	"materials":[
		{
			"doubleSided":true,
			"name":"Tower Base Material",
			"pbrMetallicRoughness":{
				"baseColorFactor":[
					0.8000000715255737,
					0.08656719326972961,
					0.08040072023868561,
					1
				],
				"metallicFactor":0,
				"roughnessFactor":0.5
			}
		}
	],
	"meshes":[
		{
			"name":"Cylinder",
			"primitives":[
				{
					"attributes":{
						"POSITION":0,
						"TEXCOORD_0":1,
						"NORMAL":2
					},
					"indices":3,
					"material":0
				}
			]
		},
		{
			"name":"Cylinder.004",
			"primitives":[
				{
					"attributes":{
						"POSITION":4,
						"TEXCOORD_0":5,
						"NORMAL":6
					},
					"indices":7
				}
			]
		}
	],
	"accessors":[
		{
			"bufferView":0,
			"componentType":5126,
			"count":368,
			"max":[
				0.04999924451112747,
				0.030279072001576424,
				0.05000055953860283
			],
			"min":[
				-0.05000075697898865,
				-0.019720926880836487,
				-0.04999944195151329
			],
			"type":"VEC3"
		},
		{
			"bufferView":1,
			"componentType":5126,
			"count":368,
			"type":"VEC2"
		},
		{
			"bufferView":2,
			"componentType":5126,
			"count":368,
			"type":"VEC3"
		},
		{
			"bufferView":3,
			"componentType":5123,
			"count":636,
			"type":"SCALAR"
		},
		{
			"bufferView":4,
			"componentType":5126,
			"count":1032,
			"max":[
				0.027289925143122673,
				0.05961460620164871,
				0.02729007788002491
			],
			"min":[
				-0.027290163561701775,
				-0.008194468915462494,
				-0.027290010824799538
			],
			"type":"VEC3"
		},
		{
			"bufferView":5,
			"componentType":5126,
			"count":1032,
			"type":"VEC2"
		},
		{
			"bufferView":6,
			"componentType":5126,
			"count":1032,
			"type":"VEC3"
		},
		{
			"bufferView":7,
			"componentType":5123,
			"count":1548,
			"type":"SCALAR"
		}
	],
	"bufferViews":[
		{
			"buffer":0,
			"byteLength":4416,
			"byteOffset":0,
			"target":34962
		},
		{
			"buffer":0,
			"byteLength":2944,
			"byteOffset":4416,
			"target":34962
		},
		{
			"buffer":0,
			"byteLength":4416,
			"byteOffset":7360,
			"target":34962
		},
		{
			"buffer":0,
			"byteLength":1272,
			"byteOffset":11776,
			"target":34963
		},
		{
			"buffer":0,
			"byteLength":12384,
			"byteOffset":13048,
			"target":34962
		},
		{
			"buffer":0,
			"byteLength":8256,
			"byteOffset":25432,
			"target":34962
		},
		{
			"buffer":0,
			"byteLength":12384,
			"byteOffset":33688,
			"target":34962
		},
		{
			"buffer":0,
			"byteLength":3096,
			"byteOffset":46072,
			"target":34963
		}
	],
	"buffers":[
		{
			"byteLength":49168,
			"uri":"data:application/octet-stream;base64,"
		}
	]
}
